<?xml version="1.0" encoding="utf-8"?>
<!-- Generator: Adobe Illustrator 24.0.1, SVG Export Plug-In . SVG Version: 6.00 Build 0)  -->
<svg version="1.1" id="Layer_1" xmlns="http://www.w3.org/2000/svg" xmlns:xlink="http://www.w3.org/1999/xlink" x="0px" y="0px"
	 viewBox="0 0 353.85 32.1" style="enable-background:new 0 0 353.85 32.1;" xml:space="preserve">
<style type="text/css">
	.st0{fill:#FFFFFF;}
	.st1{fill:#202C47;}
</style>
<g>
	<path class="st1" d="M17.1,30.63c3.16-3.15,6.18-6.28,9.04-9.39c2.86-3.11,5.71-6.35,8.54-9.72H23.57c-2.1,2.37-4.4,4.94-6.88,7.7
		c-2.48,2.76-4.93,5.4-7.33,7.93V11.52H0V32.1h18.77C18.21,31.6,17.66,31.1,17.1,30.63z"/>
	<path class="st1" d="M55.18,31.51c0.63-1.64,1.21-3.14,1.72-4.5c0.51-1.36,0.97-2.56,1.37-3.6c0.4-1.04,0.71-1.86,0.92-2.46
		c0.25,0.59,0.58,1.4,0.98,2.44c0.4,1.04,0.88,2.24,1.41,3.6c0.54,1.36,1.1,2.87,1.7,4.51c0.07,0.2,0.15,0.41,0.22,0.61h9.22
		c-0.29-0.73-0.57-1.45-0.86-2.16c-1.35-3.36-2.68-6.55-4.01-9.57c-1.33-3.02-2.67-5.97-4.04-8.85h-8.87
		c-1.4,2.88-2.76,5.83-4.06,8.85c-1.3,3.02-2.63,6.21-3.97,9.57c-0.28,0.71-0.57,1.43-0.85,2.16h8.89
		C55.02,31.91,55.1,31.7,55.18,31.51z"/>
	<rect x="85.8" y="11.52" class="st1" width="9.36" height="20.58"/>
	<polygon class="st1" points="139.2,11.52 129.84,11.52 129.84,27.42 114.12,27.42 114.12,11.52 104.76,11.52 104.76,32.1 
		139.2,32.1 	"/>
	<path class="st1" d="M157.41,26.79c0.5-1.66,1.22-3.08,2.16-4.26c0.94-1.18,2.09-2.1,3.45-2.76c1.36-0.66,2.92-0.99,4.68-0.99
		c1.72,0,3.27,0.32,4.65,0.96c1.38,0.64,2.54,1.55,3.48,2.73c0.94,1.18,1.66,2.6,2.16,4.26c0.48,1.61,0.73,3.4,0.74,5.37h9.66
		c-0.02-3.48-0.55-6.56-1.61-9.21c-1.08-2.7-2.56-4.97-4.44-6.81c-1.88-1.84-4.08-3.22-6.6-4.14c-2.52-0.92-5.2-1.38-8.04-1.38
		c-2.76,0-5.39,0.46-7.89,1.38c-2.5,0.92-4.7,2.3-6.6,4.14c-1.9,1.84-3.41,4.11-4.53,6.81c-1.1,2.65-1.65,5.73-1.67,9.21h9.66
		C156.68,30.17,156.92,28.4,157.41,26.79z"/>
	<rect x="158.04" y="0.42" class="st1" width="19.32" height="6.12"/>
	<path class="st1" d="M227.94,25.02c0-4.96-1.66-8.53-4.98-10.71c-3.32-2.18-8.08-3.27-14.28-3.27c-1.72,0-3.72,0.08-6,0.24
		c-2.28,0.16-4.44,0.44-6.48,0.84V32.1h30.14C227.39,30.17,227.94,27.82,227.94,25.02z M215.82,29.88
		c-1.64,0.88-4.08,1.32-7.32,1.32h-2.94v-12c0.48-0.04,1.05-0.08,1.71-0.12c0.66-0.04,1.33-0.06,2.01-0.06
		c1.36,0,2.6,0.09,3.72,0.27c1.12,0.18,2.07,0.5,2.85,0.96c0.78,0.46,1.38,1.07,1.8,1.83c0.42,0.76,0.63,1.72,0.63,2.88
		C218.28,27.36,217.46,29,215.82,29.88z"/>
	<path class="st1" d="M243.39,31.51c0.63-1.64,1.21-3.14,1.72-4.5c0.51-1.36,0.97-2.56,1.37-3.6c0.4-1.04,0.71-1.86,0.92-2.46
		c0.25,0.59,0.58,1.4,0.98,2.44c0.41,1.04,0.88,2.24,1.41,3.6c0.54,1.36,1.1,2.87,1.7,4.51c0.07,0.2,0.15,0.41,0.22,0.61h9.22
		c-0.29-0.73-0.57-1.45-0.86-2.16c-1.35-3.36-2.68-6.55-4.01-9.57c-1.33-3.02-2.67-5.97-4.04-8.85h-8.87
		c-1.4,2.88-2.76,5.83-4.06,8.85c-1.3,3.02-2.63,6.21-3.97,9.57c-0.28,0.71-0.57,1.43-0.86,2.16h8.89
		C243.24,31.91,243.32,31.7,243.39,31.51z"/>
	<path class="st1" d="M303.51,31.83c1.34-1.82,2.01-4.19,2.01-7.11c0-4.68-1.66-8.13-4.98-10.35c-3.32-2.22-8.1-3.33-14.34-3.33
		c-1.72,0-3.67,0.08-5.85,0.24c-2.18,0.16-4.29,0.44-6.33,0.84V32.1h29.26C303.35,32.01,303.44,31.93,303.51,31.83z M293.58,29.16
		c-1.52,0.88-4.04,1.32-7.56,1.32h-2.64V19.2c0.48-0.04,0.99-0.08,1.53-0.12c0.54-0.04,1.15-0.06,1.83-0.06c3,0,5.27,0.43,6.81,1.29
		c1.54,0.86,2.31,2.31,2.31,4.35C295.86,26.78,295.1,28.28,293.58,29.16z"/>
	<path class="st1" d="M328.53,31.51c0.63-1.64,1.21-3.14,1.72-4.5c0.51-1.36,0.97-2.56,1.37-3.6c0.4-1.04,0.71-1.86,0.92-2.46
		c0.25,0.59,0.58,1.4,0.98,2.44c0.41,1.04,0.88,2.24,1.41,3.6c0.54,1.36,1.1,2.87,1.7,4.51c0.07,0.2,0.15,0.41,0.22,0.61h9.22
		c-0.29-0.73-0.57-1.45-0.86-2.16c-1.35-3.36-2.68-6.55-4.01-9.57c-1.33-3.02-2.67-5.97-4.04-8.85h-8.87
		c-1.4,2.88-2.76,5.83-4.06,8.85c-1.3,3.02-2.63,6.21-3.97,9.57c-0.28,0.71-0.57,1.43-0.86,2.16h8.89
		C328.38,31.91,328.46,31.7,328.53,31.51z"/>
</g>
</svg>
