<?xml version="1.0" encoding="utf-8"?>
<!-- Generator: Adobe Illustrator 24.0.1, SVG Export Plug-In . SVG Version: 6.00 Build 0)  -->
<svg version="1.1" id="Layer_1" xmlns="http://www.w3.org/2000/svg" xmlns:xlink="http://www.w3.org/1999/xlink" x="0px" y="0px"
	 viewBox="0 0 353.85 21.84" style="enable-background:new 0 0 353.85 21.84;" xml:space="preserve">
<style type="text/css">
	.st0{fill:#FFFFFF;}
	.st1{fill:#00FFFF;}
</style>
<g>
	<path class="st0" d="M0.03,21h9.36V3.39c1.44,1.12,2.89,2.42,4.33,3.88s2.83,3,4.15,4.59c1.32,1.6,2.55,3.18,3.7,4.75
		s2.14,3.03,2.98,4.39h11.13c-2.85-4.59-5.82-8.79-8.91-12.6C24.19,5.24,21.54,2.45,18.8,0H0.03V21z"/>
	<path class="st0" d="M65.17,4.56H53.27c0.58-1.59,1.15-3.1,1.71-4.56h-8.89c-1.07,2.72-2.16,5.58-3.27,8.58
		c-1.4,3.8-2.89,7.94-4.45,12.42h9.72c0.46-1.43,0.95-2.91,1.47-4.44c0.53-1.52,1.05-3.04,1.58-4.56h16.24
		c0.53,1.51,1.06,3.03,1.59,4.55c0.53,1.52,1.03,3.01,1.49,4.45h10.02c-1.57-4.48-3.05-8.62-4.46-12.42c-1.11-3-2.2-5.86-3.27-8.58
		h-9.22C64.06,1.46,64.61,2.97,65.17,4.56z"/>
	<rect x="85.83" class="st0" width="9.36" height="21"/>
	<polygon class="st0" points="104.79,21 114.15,21 114.15,3.36 129.87,3.36 129.87,21 139.23,21 139.23,0 104.79,0 	"/>
	<path class="st0" d="M178.77,0.18c0,2.04-0.25,3.88-0.75,5.52c-0.5,1.64-1.22,3.05-2.16,4.23c-0.94,1.18-2.1,2.09-3.48,2.73
		c-1.38,0.64-2.93,0.96-4.65,0.96c-1.76,0-3.32-0.32-4.68-0.96c-1.36-0.64-2.51-1.55-3.45-2.73c-0.94-1.18-1.66-2.59-2.16-4.23
		c-0.5-1.64-0.75-3.48-0.75-5.52c0-0.06,0.01-0.12,0.01-0.18h-9.66c0,0.06-0.01,0.12-0.01,0.18c0,3.56,0.54,6.69,1.62,9.39
		c1.08,2.7,2.56,4.96,4.44,6.78c1.88,1.82,4.08,3.19,6.6,4.11c2.52,0.92,5.2,1.38,8.04,1.38c2.92,0,5.65-0.46,8.19-1.38
		c2.54-0.92,4.73-2.29,6.57-4.11c1.84-1.82,3.29-4.08,4.35-6.78c1.06-2.7,1.59-5.83,1.59-9.39c0-0.06-0.01-0.12-0.01-0.18h-9.66
		C178.77,0.06,178.77,0.12,178.77,0.18z"/>
	<path class="st0" d="M196.23,21h9.36V7.08h2.94c6.24,0,11.04-1.11,14.4-3.33c1.48-0.98,2.61-2.24,3.44-3.75h-30.14V21z"/>
	<path class="st0" d="M253.38,4.56h-11.89c0.58-1.59,1.15-3.1,1.71-4.56h-8.89c-1.07,2.72-2.16,5.58-3.27,8.58
		c-1.4,3.8-2.89,7.94-4.45,12.42h9.72c0.46-1.43,0.95-2.91,1.47-4.44c0.53-1.52,1.05-3.04,1.58-4.56h16.24
		c0.53,1.51,1.06,3.03,1.59,4.55c0.53,1.52,1.03,3.01,1.49,4.45h10.03c-1.57-4.48-3.05-8.62-4.46-12.42c-1.11-3-2.2-5.86-3.27-8.58
		h-9.22C252.28,1.46,252.82,2.97,253.38,4.56z"/>
	<path class="st0" d="M274.05,21h9.36V5.82h4.62c0.8,0.96,1.61,2.03,2.41,3.21c0.8,1.18,1.62,2.43,2.44,3.75
		c0.82,1.32,1.62,2.68,2.41,4.08c0.78,1.4,1.56,2.78,2.32,4.14h10.46c-0.72-1.52-1.5-3.07-2.34-4.65c-0.84-1.58-1.71-3.1-2.61-4.56
		c-0.9-1.46-1.81-2.86-2.73-4.2c-0.92-1.34-1.8-2.53-2.64-3.57c2.39-0.99,4.23-2.33,5.56-4.02h-29.26V21z"/>
	<path class="st0" d="M338.52,4.56h-11.89c0.58-1.59,1.15-3.1,1.71-4.56h-8.89c-1.07,2.72-2.16,5.58-3.27,8.58
		c-1.4,3.8-2.89,7.94-4.45,12.42h9.72c0.46-1.43,0.95-2.91,1.47-4.44c0.53-1.52,1.05-3.04,1.58-4.56h16.24
		c0.53,1.51,1.06,3.03,1.59,4.55c0.53,1.52,1.03,3.01,1.49,4.45h10.02c-1.57-4.48-3.05-8.62-4.46-12.42c-1.11-3-2.2-5.86-3.27-8.58
		h-9.22C337.42,1.46,337.96,2.97,338.52,4.56z"/>
</g>
</svg>
