<?xml version="1.0" encoding="utf-8"?>
<!-- Generator: Adobe Illustrator 16.0.0, SVG Export Plug-In . SVG Version: 6.00 Build 0)  -->
<!DOCTYPE svg PUBLIC "-//W3C//DTD SVG 1.1//EN" "http://www.w3.org/Graphics/SVG/1.1/DTD/svg11.dtd">
<svg version="1.1" id="Layer_1" focusable="false" xmlns="http://www.w3.org/2000/svg" xmlns:xlink="http://www.w3.org/1999/xlink"
	 x="0px" y="0px" width="560px" height="960px" viewBox="0 0 560 960" enable-background="new 0 0 560 960" xml:space="preserve">
<path fill="#142426" d="M220,594.263v293.794l41.288,61.912c8.906,13.35,28.538,13.35,37.444,0L340,888.057V594.263
	c-19.481,3.6-39.487,5.737-60,5.737S239.481,597.862,220,594.263z M280,0C130.881,0,10,120.881,10,270
	c0,149.119,120.881,270,270,270c149.119,0,270-120.881,270-270C550,120.881,429.119,0,280,0z M280,142.5
	c-70.312,0-127.5,57.188-127.5,127.5c0,12.413-10.087,22.5-22.5,22.5s-22.5-10.087-22.5-22.5c0-95.119,77.4-172.5,172.5-172.5
	c12.412,0,22.5,10.087,22.5,22.5S292.412,142.5,280,142.5z"/>
</svg>
