<?xml version="1.0" encoding="utf-8"?>
<!-- Generator: Adobe Illustrator 16.0.0, SVG Export Plug-In . SVG Version: 6.00 Build 0)  -->
<!DOCTYPE svg PUBLIC "-//W3C//DTD SVG 1.1//EN" "http://www.w3.org/Graphics/SVG/1.1/DTD/svg11.dtd">
<svg version="1.1" xmlns="http://www.w3.org/2000/svg" xmlns:xlink="http://www.w3.org/1999/xlink" x="0px" y="0px"
	 width="166.526px" height="226.695px" viewBox="0 0 166.526 226.695" enable-background="new 0 0 166.526 226.695"
	 xml:space="preserve">
<g id="West_Coast">
</g>
<g id="Wellington">
</g>
<g id="Waikato">
</g>
<g id="Tasman">
</g>
<g id="Taranaki">
</g>
<g id="Southland">
</g>
<g id="Otago">
</g>
<g id="Northland">
</g>
<g id="Nelson">
</g>
<g id="Marlborough">
</g>
<g id="Manawatu-Whanganui">
</g>
<g id="Hawke_x27_s_Bay">
</g>
<g id="Gisbone">
</g>
<g id="Bay_of_Plenty">
</g>
<g id="South_island">
</g>
<g id="North_Island">
	<g>
		
			<polygon fill-rule="evenodd" clip-rule="evenodd" fill="#878787" stroke="#F9F9F9" stroke-width="0.25" stroke-linecap="round" stroke-linejoin="round" points="
			116.984,200.838 114.7,200.118 112.16,200.358 107.55,201.317 102.24,201.558 97.568,201.438 99.352,196.962 94.706,200.838 
			91.097,201.198 88.435,201.918 86.782,202.235 86.623,202.698 86.304,204.088 86.337,204.848 86.313,205.15 86.182,205.526 
			86.008,205.804 85.761,206.083 85.473,206.29 85.196,206.374 84.917,206.502 84.56,207.057 84.291,207.187 84.122,207.375 
			84.373,207.775 84.731,208.144 84.88,208.224 85.043,208.631 85.101,208.942 85.01,209.213 84.733,209.487 84.278,208.695 
			84.027,208.708 83.754,209.062 83.243,209.28 82.907,209.577 82.492,210.872 81.938,211.4 81.14,212.487 80.777,212.825 
			79.67,213.032 79.249,213.26 79.053,213.862 79.454,214.914 80.511,215.778 81.828,216.356 83.01,216.571 83.318,216.43 
			83.586,216.157 83.842,215.956 84.12,216.045 84.432,216.235 84.693,216.181 84.895,215.987 85.024,215.746 85.075,215.051 
			84.673,214.752 83.454,214.483 83.522,213.995 83.674,213.624 83.921,213.321 84.273,213.032 84.76,212.809 85.483,212.69 
			86.173,212.868 86.568,213.549 86.572,214.326 86.206,215.516 86.116,216.157 86.264,216.897 86.517,217.452 86.642,217.952 
			86.404,218.528 86.495,218.781 86.884,219.094 87.494,219.464 87.911,219.551 88.174,219.51 88.388,219.343 89.429,218.125 
			89.946,217.755 90.565,217.607 91.257,217.675 94.422,218.73 94.729,218.942 94.897,219.27 94.846,221.52 94.933,221.948 
			95.156,222.319 95.418,222.626 95.587,222.959 95.522,223.413 95.969,223.713 96.35,224.657 96.776,224.856 98.672,224.692 
			99.054,224.539 99.752,223.689 100.12,223.411 101.74,222.787 106.656,218.844 108.019,218.156 109.15,217.327 109.938,216.428 
			113.332,213.549 115.387,210.295 115.748,209.146 116.139,206.374 116.324,205.738 116.655,205.042 117.104,204.489 
			118.28,204.014 118.576,203.426 118.77,201.989 		"/>
		
			<path fill-rule="evenodd" clip-rule="evenodd" fill="#878787" stroke="#F9F9F9" stroke-width="0.25" stroke-linecap="round" stroke-linejoin="round" d="
			M89.217,70.905l0.219,0.054l0.178,0.124l0.062,0.119l0.023,0.108l-0.01,0.099l-0.027,0.087l-0.054,0.139l-0.023,0.121l0.08,0.108
			l0.334,0.155l0.215,0.06l0.109,0.01l0.168,0.008l0.166-0.016l0.154-0.043l0.155-0.067l-0.164-0.314l-0.191-0.209l-0.231-0.111
			l-0.292-0.036l-0.377-0.829l-0.202-0.252l-0.672,0.216l0.167,0.346L89.217,70.905z M114.488,127.635l-0.747-0.613l-4.103-1.681
			l-0.343-0.396l-0.316-0.501l-0.532-0.708l-0.448-0.862l-0.395-1.337l-0.486-1.302l-0.073-0.7l-0.457-0.495l-1.251-1.061
			l-1.872-0.298l-0.812-0.432l-0.648-0.563l-0.404-0.876l-0.89-0.369l-0.443-0.044l-0.417-0.092l-0.346-0.512l-0.56-1.333
			l0.108-0.724l-0.082-0.706l-0.81-0.855l-0.229-0.394l-0.643-2.542l-1.183-2.195l-0.762-1.007l-0.645-1.112l-0.136-0.938
			l-0.531-0.871l-0.031-0.729l0.138-0.507l-0.354-0.585L93.4,99.906l0.136-0.501l0.247-0.432l0.81,0.407l0.873,0.246l0.017-0.41
			l-0.664-0.506l0.04-0.548l0.437-0.222l0.436-0.843l-0.031-1.181l0.979-0.416l-0.077-0.226l-0.254-1.264l-0.405-1.238l-0.315-0.58
			l-0.336-0.293l-0.919-0.406l0.301-0.358l-0.105-0.554L94.29,89.89l-0.212-0.793h0.194l0.158,0.345l0.182,0.314l0.223,0.25
			l0.267,0.17l-0.176-0.417l-0.077-0.919l-0.134-0.392l-0.235-0.111l-0.35-0.059l-0.271-0.103l-0.005-0.268l0.342-0.713l0.272-0.834
			l-0.009-0.796l-0.535-0.592l-0.131,0.26l-0.255,0.337l-0.254,0.175l-0.154-0.219l0.069-0.328l0.169-0.35l0.121-0.341l-0.088-0.312
			l-0.031-0.183l-0.036-1.006l-0.34-1.512l-0.161-0.417l-0.143-0.25l-0.463-0.517l-0.155-0.341l-0.065-0.819l-0.138-0.347
			l-0.648-0.482l-1.02,0.227l-0.599-0.293l-0.283,0.428l0.321,0.994l-0.368,0.33l0.068,0.345l-0.205,0.016l-0.333-0.196
			l-0.321-0.286l-0.095-0.25l0.068-0.232l-0.009-0.229l-0.338-0.25l0.3-0.661l0.341-0.557l0.289-0.263l0.63-0.262l0.307-0.219
			l0.384-0.927l0.104-0.155l0.738,0.096l0.25-0.111l0.089-0.418l-0.115-0.525l-0.263,0.033l-0.324,0.198l-0.292-0.051l-0.387-0.376
			l-0.344-0.144l-0.362,0.026l-0.448,0.169l-0.565,0.518l-0.355,0.183l-0.331-0.152l-0.313-0.219l-0.365-0.06l-0.309,0.108
			l-0.144,0.291l0.158,0.034l0.387,0.162l-0.937,0.809l-0.371-0.089l-0.291-0.915l0.042-0.322l0.135-0.312l0.048-0.329l-0.209-0.356
			l-0.293-0.087l-0.726,0.11l-0.312-0.131l-0.198-0.363l0.056-0.271l0.241-0.067l0.37,0.269l0.284,0.139l0.021-0.413l-0.166-0.803
			l-0.294-0.835l-0.478-0.149l-0.585-0.01l-0.591-0.433l0.488-0.624l-0.055-0.813l-0.394-0.798l-0.539-0.593l-0.582,0.752
			l-0.265-0.033l-0.59-0.502l-0.221-0.119l-0.111-0.098l-0.07-0.098l-0.13-0.25l-0.191-0.287l-0.14-0.255l-0.188-0.157L79.1,67.39
			l-0.647-0.113h-0.518l-0.156,0.449l0.221,1.22l0.191,0.521l0.27,0.419l0.474,0.39l1.005,0.36l0.487,0.252l0.543,0.655l0.085,0.082
			l0.146,0.279l0.271,0.103l0.298,0.052l0.229,0.109l0.213,0.715l-0.238,0.768l-0.08,0.843l0.698,0.955l-0.122,0.319l0.054,0.325
			l0.168,0.324l0.215,0.309l0.11-0.155l0.373-0.283l0.222,0.778l-0.38,0.376l-1.247,0.361l0.166,0.067l0.162,0.092l0.181,0.07
			l0.222,0.008l-0.123,0.319l-0.254,0.137l-0.31,0.075l-0.303,0.119l0.378,0.193l0.406,0.062l0.835-0.019l-0.312,0.536l-0.561,0.008
			l-0.63-0.11l-0.517,0.196l0.363,0.299l0.172,0.319l0.122,0.335l0.198,0.339l0.305,0.289l0.703,0.466l0.35,0.309l0.294,0.371
			l0.225,0.368l0.844,1.95l0.146,0.255l0.174,0.393l0.176,1.669l0.139,0.461l0.562,0.952l0.105,0.403l0.342,0.844l0.231,1.003
			l0.211,0.469l0.313,0.332l0.413,0.111l-0.431,0.304l-0.465-0.075l-0.385-0.377l-0.215-0.626l-0.069-0.708l-0.119-0.335
			l-0.228-0.144l-0.349,0.067l-0.118,0.162l-0.056,0.213l-0.18,0.204l-0.933,0.479l-1.131,0.296l-1.146-0.033l-0.991-0.526
			l-0.456-0.477l-0.471-0.597l-0.381-0.685l-0.208-0.726l0.048-2.204l-0.063-0.731l-0.126-0.464l-0.175-0.373l-1.313,0.732
			l-0.896-0.513l-0.405,1.197l-0.339,1.708l0.139,2.222l-2.31,0.341l-2.819,0.684l-2.682,0.683l-2.126,0.684l-1.392,1.025
			l-1.462,0.232l0.625,1.125l0.45,0.584l0.629,0.479l0.34-0.178l0.568-1.292l0.185-0.212l0.459-0.314l0.223-0.21l0.331-0.175
			l0.282,0.126l0.154,0.231l-0.038,0.121l-0.585,0.252l-0.26,0.612l-0.133,0.721l-0.202,0.594l-0.265,0.186l-0.727,0.188
			l-0.268,0.175l-0.182,0.38l0.04,0.34l0.461,1.451l1.93,3.501l2.438,6.203l0.501,0.503l0.735-0.352l0.187,0.062l0.164,0.1
			l0.105,0.03l0.107-0.146l0.051-0.357l0.104-0.145l0.979-0.646l0.243,0.478l-0.036,0.432l-0.228,0.359l-0.318,0.262l0.257,0.051
			l0.223,0.128l0.184,0.195l0.132,0.272l-1.349,0.218l-1.446,0.013l-1.153,0.435l-0.496,1.486l0.203,2.994l0.169,0.581l0.77,0.5
			l0.267-0.397l0.123-0.742l0.35-0.542l0.593,0.061l0.374,0.54l0.051,0.61l-0.383,0.292l-0.685,0.883l-0.31,0.144l-0.247,0.041
			l-0.206,0.108l-0.188,0.328l-0.067,0.344l-0.021,0.508l0.093,0.456l0.275,0.201l0.4-0.082l0.14-0.221l0.057-0.312l0.144-0.36
			l0.496-0.138l0.743,0.219l0.572,0.469l0.01,0.623l0.217,0.233l0.171-0.171l0.189-0.064l0.48,0.002l-0.376,0.665l-0.71,0.051
			l-0.803-0.1l-0.641,0.245l0.588,0.526l0.209,0.136l-0.48,0.254l-0.392-0.223l-0.369-0.407l-0.429-0.286l0.062,0.449h-0.16
			l-0.187-0.179l-0.209-0.241l-0.172-0.303l-0.08-0.354l-0.384,0.166l-0.463,0.09l-0.481-0.043l-0.432-0.212l-0.059,0.472l0.2,0.541
			l0.29,0.572l0.201,0.566l0.06,0.661l-0.104,1.123l0.118,1.852l-0.033,1.215l-0.174,1.105l-0.629,1.988l-0.054,1.174l0.666,5.421
			l-0.011,0.548l-0.099,0.465l-0.01,0.475l0.243,0.557l-0.374,0.107l-0.032,0.104l1.925,0.891l2.255,0.139l0.487-0.137l0.373,0.094
			l0.339,0.261l0.531,0.495l0.765,0.442l0.816-0.524l0.914-0.32l-0.06-0.275l0.033-0.264l0.497-1.018l-0.204-0.596l0.158-0.399
			l1.548-0.297l0.537-0.265l0.479-0.435l0.282-0.052l0.292,0.129l0.201-0.175l0.264-0.173l1.037,0.048l1.045,0.187l0.607-0.066
			l0.944-0.547l0.38-0.372l0.312-0.171l0.241-0.096v-0.368l0.086-0.338l0.484-0.348l0.481,0.385l0.601-0.02l1.475-0.344l1.558,0.005
			l0.954,0.575l1.104,0.463l0.756-0.236l0.66-0.455l0.373,0.365l-0.286,0.895l-0.62,0.794l-0.178,1.045l-0.4,1.298l-0.718,1.354
			l0.568,0.855l0.819,0.603l0.133,0.907l-0.355,0.86l0.251,0.776l0.569,0.559l0.109,0.499l-0.151,0.398l-0.066,1.145l0.965,0.493
			l0.813-0.125l0.825,0.051l0.104,0.683l-0.322,0.872l-0.354,0.611l-0.052,0.714l0.394,0.506l0.303,0.628l-0.111,1.435l-0.372,1.317
			l-0.431,1.143l0.27,1.226l2.284,0.621l2.318-0.029l1.069,0.118l0.932-0.479l0.242-0.376l0.045-0.483l0.139-0.466l0.211-0.426
			l0.118-0.411l0.255-0.352l0.966-0.361l0.561-0.797l0.05-0.168l0.124-0.094l1.089-0.145l1.944,0.078l1.415-0.494l0.718,0.214
			l1.066-1.497l0.912-1.927l-0.855-2.839l-0.491-0.43l-0.55,0.324l-0.807-0.16l-0.744-0.6l-0.898-1.179l-0.802-1.263l-0.334-0.423
			l0.028-1.032l0.148-0.711l0.511,0.02l1.787,0.627l0.525-0.193l0.398-0.456l-0.73-1.185l-1.162-1.158l0.129-1.234l0.431-1.346
			l-0.453-0.459l-2.214-0.826l-1.524-0.381l-0.36-0.669l0.154-0.698l0.365-0.076l0.323-0.109l0.178-0.461l0.257-0.395l0.568-0.649
			l0.538,0.424l0.565,0.285l0.605,0.643l0.161,0.14l0.853-0.003l0.4-0.059l0.389-0.154l0.214-0.167l0.354-0.369l0.218-0.107h0.341
			l0.363,0.13l0.297,0.253l0.155,0.367l-0.002,0.382l-0.105,0.258l-0.371,0.433l-0.119,0.366l-0.021,0.336l0.413,0.238l0.626,0.045
			l0.537-0.274l0.197-0.679l0.099-0.655l0.402-0.326l1.62,0.716l0.397-0.856l0.247-2.481L114.488,127.635z"/>
		
			<polygon fill-rule="evenodd" clip-rule="evenodd" fill="#878787" stroke="#F9F9F9" stroke-width="0.25" stroke-linecap="round" stroke-linejoin="round" points="
			81.39,167.296 81.134,167.034 80.954,165.596 81.148,164.195 80.788,163.272 80.298,162.322 78.989,161.338 78.108,160.441 
			77.796,159.802 77.675,159.116 77.785,158.813 77.853,158.493 77.663,158.042 77.109,157.781 75.858,157.013 75.864,156.584 
			76.061,156.118 76.333,155.087 76.94,154.347 77.512,154.243 77.928,154.049 78.293,152.968 80.059,150.282 80.352,150.193 
			80.786,150.338 81.084,150.139 80.739,149.601 80.177,149.174 78.439,148.779 78.312,147.815 77.806,147.015 76.744,146.802 
			76.092,146.185 75.715,145.311 75.649,144.278 75.145,143.53 74.324,143.929 73.494,142.881 73.088,141.675 73.496,140.572 
			73.576,140.449 73.696,140.313 74.211,140.138 74.609,139.871 73.845,139.429 73.313,138.934 72.975,138.672 72.602,138.579 
			72.114,138.715 69.859,138.577 67.935,137.686 67.86,137.911 67.994,138.875 67.998,139.286 67.862,140.025 67.812,141.172 
			67.518,141.826 64.894,144.887 63.89,145.694 62.717,146.089 59.301,145.855 58.766,146.016 52.819,149.925 50.363,151.05 
			49.333,151.942 48.785,153.335 48.665,154.825 48.742,156.255 49.1,157.675 49.794,159.117 50.744,160.365 51.808,161.316 
			55.593,163.75 57.132,164.224 61.546,164.876 62.973,165.291 64.337,165.973 65.522,167.005 67.319,169.217 67.885,169.787 
			70.931,172.193 71.59,172.568 72.26,172.714 73.832,172.866 75.973,173.58 76.914,173.571 77.423,172.373 77.868,171.861 
			78.46,171.501 78.991,170.793 79.636,170.224 80.179,170.044 80.525,169.529 80.394,169.097 80.317,168.497 80.403,168.272 
			80.647,168.164 81.19,168 81.613,167.593 		"/>
		
			<polygon fill-rule="evenodd" clip-rule="evenodd" fill="#878787" stroke="#F9F9F9" stroke-width="0.25" stroke-linecap="round" stroke-linejoin="round" points="
			58.313,56.277 57.895,55.974 57.575,55.587 57.354,54.841 57.387,54.499 57.5,54.229 57.494,53.936 57.193,53.529 56.894,53.369 
			56.244,53.369 55.922,53.31 55.407,53.05 54.147,52.196 53.784,51.8 53.675,51.226 53.608,50.416 53.422,49.645 52.942,49.192 
			53.451,48.621 53.815,47.993 53.847,47.371 53.354,46.821 52.774,46.625 51.039,46.404 50.58,46.486 50.429,46.836 50.321,47.245 
			50.128,47.51 49.722,47.445 49.509,47.198 49.39,46.811 49.372,46.397 49.468,46.073 49.494,45.541 49.164,43.829 49.198,43.135 
			49.523,43.466 49.771,43.813 49.946,44.194 50.083,44.641 50.144,45.217 50.092,45.479 50.151,45.541 50.559,45.525 
			50.664,45.422 50.748,44.978 50.912,44.877 51.083,44.947 51.383,45.24 51.57,45.289 51.931,45.191 52.56,44.908 52.94,44.877 
			52.975,45.387 53.739,45.603 53.631,46.194 54.256,46.582 54.808,47.106 55.375,47.438 56.062,47.248 55.306,46.073 
			55.209,45.787 55.291,45.031 55.221,44.641 54.916,44.302 53.288,43.372 53.56,43.295 53.828,43.156 54.025,42.929 54.076,42.604 
			53.937,42.334 53.65,42.21 52.969,42.056 53.319,41.861 53.451,41.819 52.41,41.286 51.938,40.923 52.191,40.762 52.659,40.782 
			53.84,40.972 54.259,41.192 54.469,40.125 54.149,39.379 52.745,38.06 51.263,36.961 51.102,36.581 52.099,36.438 51.913,36.054 
			51.173,34.947 50.925,34.713 50.85,34.657 50.727,34.389 50.61,34.282 50.504,34.271 50.447,34.343 50.431,34.431 50.457,34.476 
			49.912,34.343 49.373,34.282 48.741,33.835 47.54,31.714 47.027,31.014 47.307,31.269 48.192,31.896 49.009,32.655 49.174,32.758 
			49.517,32.422 48.611,31.46 48.805,31.014 48.782,30.819 48.206,30.853 47.635,30.791 47.159,30.471 46.872,29.723 46.943,28.989 
			47.217,28.349 47.361,27.708 47.067,26.933 46.351,27.585 45.735,28.346 45.639,28.653 45.66,28.805 45.635,28.913 45.366,29.082 
			45.353,28.979 45.077,28.887 44.727,28.835 44.461,28.867 44.537,28.979 44.707,29.297 43.369,29.112 42.755,29.149 
			42.439,29.512 42.236,29.297 42.542,29.79 43.216,30.117 43.98,30.312 44.56,30.374 44.79,30.507 44.913,30.81 44.888,31.114 
			44.667,31.25 44.447,31.153 44.262,30.953 44.025,30.794 43.655,30.819 43.717,30.96 43.835,31.307 43.908,31.445 43.607,31.41 
			43.323,31.302 42.779,31.014 42.749,31.45 42.634,31.958 42.498,32.296 42.412,32.207 42.253,31.361 42.124,30.976 41.955,30.702 
			40.86,29.692 40.647,29.297 40.676,28.897 40.813,28.498 40.814,28.069 40.441,27.575 40.204,27.77 39.929,27.836 39.643,27.77 
			39.367,27.575 38.841,27.808 38.399,27.485 38.427,27.042 39.29,26.933 38.708,26.179 38.441,25.979 38.681,25.772 39.266,25.426 
			39.626,25.859 39.893,25.864 40.088,25.702 40.21,25.659 40.361,25.979 40.429,26.33 40.545,26.617 40.854,26.732 41.888,26.395 
			41.588,25.603 41.014,24.953 40.324,24.518 39.683,24.351 38.216,24.522 37.382,24.394 36.959,23.816 36.7,23.045 36.234,22.546 
			35.096,21.753 34.588,21.218 34.32,20.85 34.371,20.682 33.612,20.628 33.229,20.654 32.794,20.896 32.365,20.966 32.201,21.129 
			32.188,21.313 32.305,21.779 32.305,21.97 31.904,23.043 31.925,23.337 31.999,23.544 31.894,23.667 31.361,23.708 30.384,22.945 
			30.31,22.68 30.526,22.408 31.055,21.97 31.159,21.679 31.21,21.357 31.331,21.073 31.645,20.896 31.286,20.75 31.107,20.699 
			30.904,20.682 30.677,20.618 30.555,20.444 30.451,20.224 30.287,20.022 30.202,19.846 30.191,19.638 30.127,19.468 
			29.865,19.395 29.677,19.462 29.592,19.607 29.547,19.758 29.469,19.826 28.684,19.823 28.295,19.672 27.938,18.979 
			27.622,18.818 27.274,18.864 27.005,19.181 26.658,18.705 26.265,18.383 25.927,18.404 25.741,18.948 25.836,19.441 
			26.131,19.805 26.501,20.114 26.826,20.467 26.786,20.62 26.555,21.129 25.994,20.49 25.478,20.321 24.241,20.467 23.662,20.36 
			23.122,20.071 22.637,19.656 22.224,19.181 21.935,18.777 21.608,18.22 21.409,17.626 21.526,17.123 21.759,17.016 22.84,17.016 
			23.845,16.571 23.396,16.079 23.288,15.821 23.38,15.499 23.097,15.552 22.361,15.945 22.459,15.439 22.462,15.154 22.403,14.873 
			22.229,14.485 22.035,14.265 21.82,14.271 21.57,14.546 21.598,14.75 21.753,15.051 21.854,15.419 21.729,15.838 21.167,16.21 
			20.544,16.324 20.083,16.538 20.024,17.231 20.567,18.749 20.735,19.631 20.454,20.022 20.101,20.161 20.003,20.48 19.966,20.85 
			19.798,21.129 19.591,21.145 18.708,20.896 18.421,20.881 18.257,20.904 18.163,20.729 18.021,19.432 18.067,19.114 
			18.193,18.848 18.663,18.179 18.694,17.816 14.997,15.787 13.779,14.684 13.542,13.568 14.133,14 15.577,15.499 15.17,14.181 
			14.167,13.116 12.986,12.174 12.026,11.212 11.592,9.986 11.108,8.151 10.534,6.618 9.819,6.276 10.296,6.943 10.562,7.846 
			10.609,8.769 10.409,9.503 10.179,9.712 10.054,9.496 9.844,7.69 9.747,7.285 9.562,6.913 9.461,7.231 9.263,7.377 8.995,7.357 
			8.692,7.167 8.796,6.956 8.855,6.742 8.936,6.276 8.648,6.332 8.475,6.528 8.384,6.818 8.353,7.167 7.458,6.558 7.169,6.276 
			7.39,6.146 7.534,5.962 7.606,5.716 7.59,5.399 8.048,5.664 8.214,5.466 8.22,4.777 8.315,3.99 8.502,3.932 9.042,4.116 
			9.007,4.266 8.978,4.633 8.946,4.777 9.333,4.93 9.566,5.302 9.714,5.675 9.862,5.848 10.274,5.81 10.478,5.669 10.546,5.409 
			10.563,4.992 10.312,3.316 10.435,2.688 11.125,2.215 10.669,1.775 10.382,1.854 10.153,2.165 9.896,2.409 9.45,2.493 
			6.473,2.233 5.753,2.755 4.964,2.939 4.677,3.285 3.978,2.893 2.45,2.826 1.823,2.516 1.367,2.218 1.284,2.531 1.38,3.03 
			1.46,3.285 1.261,3.866 1.118,4.097 0.886,4.35 3.247,5.672 4.402,6.574 10.536,13.54 11.026,13.783 11.403,14.106 12.456,16.158 
			13.016,16.83 14.767,18.411 15.172,18.933 16.24,20.896 16.78,22.477 16.884,24.09 16.575,25.567 15.883,26.732 15.389,26.487 
			14.871,26.376 14.522,26.55 14.54,27.165 14.78,27.58 15.946,28.669 16.655,29.486 17.052,29.799 17.517,29.938 17.981,29.825 
			18.667,29.389 19.063,29.512 18.808,29.883 17.979,30.561 17.802,30.819 17.988,31.153 18.913,32.091 19.219,32.327 
			19.354,31.512 19.554,30.791 19.962,30.299 20.735,30.173 20.628,30.528 20.449,30.853 20.009,31.445 20.183,31.43 20.54,31.456 
			20.716,31.445 19.959,32.453 19.89,32.979 20.306,33.831 22.903,36.925 23.138,37.131 23.368,37.08 23.423,36.817 23.222,34.476 
			23.179,34.487 23.091,34.392 23.007,34.231 22.992,34.045 23.202,33.777 23.507,33.63 23.652,33.419 23.37,32.974 23.823,32.574 
			24.093,32.414 24.29,32.422 24.653,32.899 24.835,33.007 25.059,32.866 25.271,32.769 25.548,32.699 25.693,32.548 25.373,31.93 
			25.502,31.814 25.763,31.846 26.479,32.275 26.984,32.284 27.365,32.007 27.443,31.445 27.184,30.938 26.789,30.348 
			26.608,29.769 27.003,29.297 27.606,30.778 27.95,31.25 27.813,30.107 27.886,29.938 28.177,29.974 28.312,30.097 28.372,30.33 
			28.41,30.702 28.711,30.791 29.622,30.507 29.287,31.222 29.204,31.881 29.125,32.091 28.824,32.312 28.655,32.234 28.488,32.081 
			28.246,32.091 27.853,32.53 27.813,33.123 27.874,33.744 27.794,34.282 26.956,33.184 26.926,33.589 27.109,34.685 27.079,34.908 
			26.694,34.776 26.379,34.469 26.095,34.113 25.8,33.831 25.786,33.969 25.68,34.282 25.146,34.036 24.864,34.446 24.773,35.174 
			24.808,35.886 24.677,36.412 23.968,37.551 23.842,38.06 24.079,38.651 30.863,46.455 37.645,54.267 38.803,56.12 42.713,60.673 
			43.912,63.722 44.667,64.829 45.908,64.799 47.039,64.278 47.496,63.851 47.622,63.187 47.252,62.496 46.665,61.961 46.369,61.58 
			46.865,61.34 46.584,60.941 46.213,60.926 45.828,60.982 45.479,60.792 43.797,58.629 43.58,58.444 43.294,58.251 43.039,58.032 
			42.737,57.42 42.422,57.217 42.073,57.069 41.81,56.892 41.566,56.555 41.157,55.855 40.942,55.58 40.669,54.993 40.451,54.159 
			40.138,53.418 39.56,53.094 39.344,52.767 37.793,50.917 37.836,50.408 38.751,49.881 38.823,49.192 38.665,49.037 38.385,48.816 
			38.158,48.51 38.158,48.093 38.334,48.076 38.641,48.271 38.946,48.549 39.121,48.759 39.338,49.551 39.154,50.041 38.318,50.917 
			39.188,51.501 39.552,51.872 39.964,52.816 40.8,53.588 41.022,54.067 41.196,55.294 41.443,55.873 41.881,56.12 42.24,56.272 
			42.73,56.617 43.164,57.018 43.361,57.316 43.632,57.507 44.864,57.548 45.353,57.649 45.845,58.051 46.185,58.5 46.47,58.964 
			47.199,59.871 47.379,59.984 47.667,60.025 47.931,60.123 48.32,60.561 48.54,60.673 48.796,60.676 49.005,60.614 49.136,60.447 
			49.156,60.144 49.294,60.076 50.188,59.829 49.646,59.132 49.332,58.853 49.096,58.852 48.929,59.18 48.817,59.333 48.634,59.396 
			48.378,59.269 48.34,58.964 48.443,58.514 48.126,58.112 47.85,57.924 47.516,57.868 47.049,57.865 46.688,57.729 46.603,57.044 
			46.299,56.784 47.314,55.888 47.705,55.906 47.705,56.784 48.168,56.151 48.422,55.947 48.827,55.922 48.671,56.537 48.62,56.864 
			48.634,57.217 48.711,57.663 48.803,57.77 48.967,57.76 49.259,57.865 49.492,57.883 49.707,57.816 49.882,57.909 50.014,58.406 
			50.136,58.683 50.354,58.696 50.633,58.645 50.934,58.748 50.817,58.872 50.486,59.396 51.18,59.031 51.698,58.161 51.907,57.09 
			51.661,56.12 52.671,56.398 52.948,56.568 53.312,57.069 53.269,57.355 52.955,57.404 52.503,57.198 52.443,57.664 52.447,57.94 
			52.425,58.167 52.31,58.514 51.806,59.289 51.536,60.305 51.496,61.108 51.303,61.076 50.821,60.673 50.037,60.431 49.798,60.561 
			49.997,61.124 50.232,61.294 50.618,61.434 51.282,61.557 51.72,61.297 52.163,60.815 52.55,60.541 52.797,60.908 53.056,60.725 
			53.595,60.148 53.831,60.025 54.091,59.999 54.191,59.989 54.536,59.876 54.848,59.68 55.085,59.396 55.773,58.842 58.017,56.704 
			58.45,56.413 		"/>
		
			<polygon fill-rule="evenodd" clip-rule="evenodd" fill="#878787" stroke="#F9F9F9" stroke-width="0.25" stroke-linecap="round" stroke-linejoin="round" points="
			126.464,189.375 125.328,188.506 124.532,188.134 121.812,187.913 120.85,187.34 119.991,186.557 119.903,185.635 
			119.913,184.583 119.69,183.634 118.757,181.989 118.635,181.161 118.734,180.655 118.576,180.077 117.613,179.268 
			117.275,178.926 117.103,178.467 117.117,178.059 116.908,177.686 116.706,177.575 116.492,177.5 116.072,177.448 
			115.674,177.215 113.992,175.987 112.352,176.049 111.824,175.92 111.283,177.861 111.141,177.502 111.135,177.274 
			111.354,174.911 111.337,172.845 111.957,168.865 111.923,168.452 112.002,168.099 112.204,168.035 112.276,167.838 
			111.802,167.17 111.418,166.374 111.506,165.901 111.307,165.503 110.99,165.425 110.68,165.23 110.993,164.898 111.464,164.586 
			112.438,163.121 113.168,162.756 113.961,162.535 114.451,162.168 114.105,160.402 114.08,159.452 114.299,158.654 
			113.529,158.097 112.911,157.853 112.732,157.462 112.877,157.021 112.921,156.544 113.399,156.124 113.382,155.864 
			113.218,155.66 113.024,155.071 112.663,154.436 110.892,153.985 109.979,152.847 109.651,151.368 108.934,151.154 
			107.519,151.648 105.574,151.57 104.485,151.715 104.361,151.809 104.312,151.977 103.751,152.774 102.785,153.135 
			102.53,153.487 102.412,153.898 102.201,154.324 102.062,154.79 102.018,155.273 101.775,155.649 100.844,156.129 99.774,156.011 
			97.456,156.04 95.172,155.419 94.902,154.193 95.333,153.05 95.705,151.733 95.816,150.298 95.514,149.67 95.12,149.164 
			95.172,148.45 95.526,147.838 95.849,146.966 95.744,146.283 94.919,146.232 94.105,146.356 93.141,145.864 93.207,144.719 
			93.358,144.321 93.249,143.822 92.68,143.263 92.429,142.487 92.784,141.627 92.651,140.721 91.832,140.118 91.264,139.263 
			91.981,137.909 92.382,136.611 92.56,135.565 93.18,134.771 93.466,133.876 93.093,133.512 92.433,133.967 91.677,134.203 
			90.573,133.74 89.619,133.165 88.062,133.159 86.587,133.503 85.986,133.523 85.505,133.138 85.021,133.486 84.935,133.824 
			84.935,134.192 84.693,134.288 84.382,134.459 84.002,134.831 83.058,135.377 82.45,135.443 81.405,135.257 80.368,135.208 
			80.104,135.381 79.903,135.557 79.611,135.427 79.329,135.479 78.85,135.914 78.312,136.178 76.765,136.475 76.606,136.874 
			76.811,137.47 76.313,138.488 76.28,138.751 76.34,139.026 75.426,139.346 74.609,139.871 74.211,140.138 73.696,140.313 
			73.576,140.449 73.496,140.572 73.088,141.675 73.494,142.881 74.324,143.929 75.145,143.53 75.649,144.278 75.715,145.311 
			76.092,146.185 76.744,146.802 77.806,147.015 78.312,147.815 78.439,148.779 80.177,149.174 80.739,149.601 81.084,150.139 
			80.786,150.338 80.352,150.193 80.059,150.282 78.293,152.968 77.928,154.049 77.512,154.243 76.94,154.347 76.333,155.087 
			76.061,156.118 75.864,156.584 75.858,157.013 77.109,157.781 77.663,158.042 77.853,158.493 77.785,158.813 77.675,159.116 
			77.796,159.802 78.108,160.441 78.989,161.338 80.298,162.322 80.788,163.272 81.148,164.195 80.954,165.596 81.134,167.034 
			81.39,167.296 81.613,167.593 81.19,168 80.647,168.164 80.403,168.272 80.317,168.497 80.394,169.097 80.525,169.529 
			80.179,170.044 79.636,170.224 78.991,170.793 78.46,171.501 77.868,171.861 77.423,172.373 76.914,173.571 78.02,173.559 
			78.689,173.673 80.187,174.294 82.103,175.34 84.774,177.817 85.409,176.174 87.604,178.048 88.103,178.746 88.552,179.559 
			89.272,181.221 89.893,183.227 90.396,183.952 91.271,184.157 92.029,183.862 92.555,183.27 92.909,182.489 93.162,181.641 
			93.314,181.641 93.408,182.411 93.289,183.032 93.012,183.532 92.633,183.929 92.126,184.334 91.84,184.492 91.519,184.578 
			91.1,184.53 90.811,184.426 90.67,184.538 90.75,185.756 90.695,187.514 90.555,188.053 90.553,188.313 90.649,188.768 
			90.797,189.235 91.029,189.711 90.883,189.809 90.651,189.846 90.467,189.848 90.396,189.923 90.418,190.101 90.47,190.303 
			90.48,190.459 90.451,191.162 90.617,192.888 90.496,193.508 90.309,194.033 89.936,196.118 89.118,198.558 88.041,200.739 
			86.782,202.235 88.435,201.918 91.097,201.198 94.706,200.838 99.352,196.962 97.568,201.438 102.24,201.558 107.55,201.317 
			112.16,200.358 114.7,200.118 116.984,200.838 118.77,201.989 119.35,199.958 119.804,199.081 120.433,196.793 120.562,196.516 
			120.728,196.391 121.129,196.342 121.285,196.233 121.659,195.352 121.747,195.016 121.801,194.661 121.797,194.352 
			121.957,193.963 123.258,192.569 124.405,190.355 124.872,190.208 125.524,190.347 126.135,190.309 126.467,189.622 		"/>
		
			<polygon fill-rule="evenodd" clip-rule="evenodd" fill="#878787" stroke="#F9F9F9" stroke-width="0.25" stroke-linecap="round" stroke-linejoin="round" points="
			155.152,150.117 154.263,149.706 152.484,149.523 152.594,148.897 152.87,148.44 153.017,147.984 152.717,147.366 
			152.833,146.848 152.746,145.621 151.787,144.391 150.595,144.198 147.574,141.894 142.782,137.278 142.402,134.872 
			139.959,133.427 139.693,135.064 133.87,131.924 133.443,132.14 132.839,132.348 132.597,133.075 132.392,133.371 132.25,133.704 
			131.104,134.14 130.817,134.72 130.36,134.957 130.156,134.846 129.859,134.96 129.398,135.327 129.042,135.792 128.916,136.29 
			128.762,136.714 128.499,137.16 128.122,137.598 127.47,137.572 126.747,137.435 125.168,136.596 123.072,137.162 
			122.473,137.505 121.792,138.008 121.362,138.753 121.625,140.342 121.49,140.628 121.378,140.958 121.617,141.977 
			120.819,143.243 119.726,144.512 119.443,145.241 119.628,146.07 119.915,146.598 119.555,146.755 118.312,146.916 
			116.456,146.908 115.393,148.422 115.742,149.485 115.907,150.334 115.195,150.523 114.652,150.957 115.027,151.599 
			114.685,152.052 112.638,151.436 110.718,149.871 109.651,151.368 109.979,152.847 110.892,153.985 112.663,154.436 
			113.024,155.071 113.218,155.66 113.382,155.864 113.399,156.124 112.921,156.544 112.877,157.021 112.732,157.462 
			112.911,157.853 113.529,158.097 114.299,158.654 114.08,159.452 114.105,160.402 114.451,162.168 113.961,162.535 
			113.168,162.756 112.438,163.121 111.464,164.586 110.993,164.898 110.68,165.23 110.99,165.425 111.307,165.503 111.506,165.901 
			111.418,166.374 111.802,167.17 112.276,167.838 112.204,168.035 112.002,168.099 111.923,168.452 111.957,168.865 
			111.337,172.845 111.354,174.911 111.135,177.274 111.141,177.502 111.283,177.861 111.824,175.92 112.352,176.049 
			113.992,175.987 115.674,177.215 116.072,177.448 116.492,177.5 116.706,177.575 116.908,177.686 117.117,178.059 
			117.103,178.467 117.275,178.926 117.613,179.268 118.576,180.077 118.734,180.655 118.635,181.161 118.757,181.989 
			119.69,183.634 119.913,184.583 119.903,185.635 119.991,186.557 120.85,187.34 121.812,187.913 124.532,188.134 125.328,188.506 
			126.464,189.375 126.434,187.439 127.617,184.349 127.357,184.386 127.147,184.517 126.975,184.727 126.847,184.997 
			126.85,184.379 127,183.87 127.517,183.014 127.766,182.833 128.015,182.969 128.264,183.209 128.521,183.322 128.718,183.231 
			129.686,182.28 130.508,180.897 130.969,179.752 131.222,178.695 131.275,178.552 131.535,178.084 131.564,177.938 
			131.553,177.733 131.401,176.956 131.364,176.548 131.436,176.262 131.711,175.746 132.082,176.999 132.549,174.277 
			132.806,173.675 132.93,173.59 133.299,173.434 133.389,173.37 133.405,173.161 133.367,172.978 133.316,172.831 133.301,172.714 
			133.595,170.649 133.746,170.304 134.298,170.09 134.588,169.909 134.827,169.668 134.913,169.429 135.076,168.668 
			135.438,168.053 135.476,167.629 134.645,167.43 133.795,167.535 133.353,167.522 132.996,167.324 132.792,167.157 
			132.072,166.68 131.629,166.473 131.451,166.293 131.29,166.301 131.093,166.756 131.074,167.133 131.213,167.795 
			131.135,167.981 130.668,167.694 130.612,166.824 130.881,165.175 130.346,162.283 130.079,161.651 129.745,161.303 
			129.431,161.084 129.176,160.806 129.02,160.287 128.966,159.743 128.996,159.337 129.127,158.983 129.393,158.587 
			129.559,157.731 129.632,157.63 130.165,157.186 130.953,156.241 131.466,155.439 131.729,154.828 131.908,154.143 
			131.923,153.455 132.182,153.077 135.454,151.477 139.873,149.269 140.456,148.694 140.701,148.765 140.959,148.976 
			141.288,149.096 145.415,149.202 149.449,149.38 149.853,149.523 150.692,150.036 150.976,150.158 151.247,149.675 
			151.719,149.639 152.111,149.892 152.137,150.257 151.947,150.605 151.78,151.057 151.648,151.566 151.583,152.079 
			151.681,152.998 151.998,153.998 152.936,155.909 153.272,155.505 153.633,155.193 153.902,154.841 153.995,153.84 
			154.397,152.269 155.606,150.905 		"/>
		
			<polygon fill-rule="evenodd" clip-rule="evenodd" fill="#878787" stroke="#F9F9F9" stroke-width="0.25" stroke-linecap="round" stroke-linejoin="round" points="
			164.631,105.998 164.157,105.357 163.534,104.782 163.09,104.463 162.691,104.293 162.366,104.231 161.58,104.247 
			161.234,104.146 160.692,103.7 160.363,103.599 159.467,103.606 159.026,103.544 158.584,103.388 158.278,103.162 157.75,102.668 
			157.421,102.524 157.396,102.308 157.703,101.969 157.353,101.706 156.735,101.524 151.582,101.275 151.641,101.798 
			151.222,102.592 149.811,103.055 149.286,103.32 149.268,103.689 149.422,103.98 149.789,104.885 149.891,105.92 149.749,106.552 
			149.734,107.273 150.373,107.743 150.956,107.204 151.566,107.239 151.89,107.911 151.323,109.104 150.469,110.024 
			149.441,112.494 148.582,117.464 147.706,118.824 146.534,118.158 145.409,117.34 144.342,116.367 143.429,116.114 
			143.173,116.38 143.559,117.114 143.686,118.337 143.66,119.048 143.193,119.625 143.121,120.014 143.016,120.388 
			142.688,120.629 142.315,120.791 141.812,121.364 141.254,121.846 140.604,122.145 139.92,122.241 139.304,122.507 
			139.139,122.984 139.37,123.561 139.406,124.692 139.011,125.689 138.149,126.562 135.225,127.801 133.654,128.97 133.83,130.001 
			134.204,131.105 133.87,131.924 139.693,135.064 139.959,133.427 142.402,134.872 142.782,137.278 147.574,141.894 
			150.595,144.198 151.787,144.391 152.746,145.621 152.978,144.699 153.021,142.865 152.839,141.218 152.911,140.52 
			153.262,139.74 153.277,139.38 153.015,139.031 152.482,138.546 152.41,138.398 152.29,138.066 152.263,137.902 152.243,137.53 
			152.337,137.51 152.503,137.576 152.716,137.475 153.201,137.091 153.821,136.931 154.485,137.07 155.602,137.971 156.02,137.739 
			158.342,135.521 160.836,132.427 160.945,132.172 160.679,130.139 160.757,129.865 161.655,129.374 161.802,129.113 
			161.764,128.668 161.572,128.335 161.285,128.11 160.959,128.003 161.079,127.59 161.058,126.9 161.123,126.5 161.479,126.062 
			161.668,125.761 161.706,125.407 161.393,124.982 160.832,124.434 160.405,123.809 160.469,123.158 160.794,122.615 
			161.021,121.995 161.034,121.364 160.236,120.037 160.427,119.54 160.896,119.16 161.261,118.74 161.301,117.919 160.95,117.231 
			160.494,116.574 160.216,115.835 160.26,115.492 160.415,115.185 160.776,114.65 160.997,114.149 161.48,112.171 161.769,111.477 
			162.613,110.845 162.875,110.067 163.223,108.601 164.07,107.608 164.462,106.814 164.643,106.53 		"/>
		
			<polygon fill-rule="evenodd" clip-rule="evenodd" fill="#878787" stroke="#F9F9F9" stroke-width="0.25" stroke-linecap="round" stroke-linejoin="round" points="
			151.566,107.239 150.956,107.204 150.373,107.743 149.734,107.273 149.749,106.552 149.891,105.92 149.789,104.885 
			149.422,103.98 149.268,103.689 149.286,103.32 149.811,103.055 151.222,102.592 151.641,101.798 151.582,101.275 
			150.403,101.218 149.37,101.012 149.732,101.508 149.893,101.856 149.843,102.164 149.546,102.524 149.095,102.73 
			147.973,102.851 147.604,103.059 147.105,103.975 146.808,104.324 146.365,104.463 145.853,104.499 143.391,105.219 
			143.229,105.442 143.207,105.812 143.081,106.093 142.748,106.53 142.521,107.084 142.367,108.241 142.039,108.795 
			141.043,109.366 140.912,109.558 140.869,109.867 140.535,110.638 140.634,111.441 140.565,111.729 140.342,112.068 
			139.638,112.72 137.81,113.921 137.397,114.327 136.831,114.704 134.564,114.866 133.826,115.058 133.542,115.082 
			133.383,115.182 133.406,115.405 133.45,115.627 133.361,115.729 133.219,115.781 133.119,115.89 133.006,115.938 
			132.844,115.835 132.507,115.364 132.436,115.296 130.766,115.296 130.416,115.136 130.175,114.904 129.909,114.758 
			129.49,114.866 129.72,115.194 129.883,115.63 129.867,116.013 129.559,116.179 129.183,116.12 128.834,115.969 127.555,115.15 
			127.377,114.95 127.647,114.866 129.143,114.866 128.119,114.343 125.706,114.029 124.201,113.156 122.434,112.91 120.825,112.33 
			119.18,112.068 118.086,111.58 112.533,107.932 112.253,108.143 112.066,108.048 111.929,107.845 111.792,107.716 
			111.025,107.716 110.692,107.583 110.004,106.987 109.697,106.859 108.934,106.689 107.299,105.949 106.58,105.779 
			105.913,105.418 104.811,103.815 104.258,103.388 103.931,103.506 104.122,103.954 104.812,104.895 105.352,106.422 
			104.977,106.468 104.585,106.586 104.265,106.599 104.101,106.313 104.042,105.782 103.963,105.394 103.784,105.11 
			103.416,104.895 102.915,104.812 102.775,105.069 102.688,105.396 102.342,105.563 102.06,105.38 101.799,105.041 
			101.522,104.856 101.16,105.131 100.853,104.663 100.646,104.206 100.388,103.822 99.906,103.599 99.826,103.666 99.748,103.822 
			99.629,103.98 99.438,104.051 98.986,104.031 98.845,103.964 98.696,103.815 98.636,103.661 98.428,102.951 98.454,102.843 
			98.538,102.673 98.576,102.48 98.508,102.308 98.397,102.249 98.12,102.195 97.973,102.092 97.899,102.098 97.775,102.144 
			97.619,102.11 97.42,101.876 97.353,101.65 97.356,101.416 97.403,101.192 97.473,101.012 97.337,100.883 97.06,100.533 
			96.879,100.344 98.049,100.12 98.718,100.153 99.256,100.462 99.657,100.868 100.135,101.258 101.104,101.876 100.339,102.164 
			100.094,102.308 100.562,102.699 100.964,102.766 101.338,102.704 101.736,102.74 102.061,102.895 103.063,103.599 
			102.896,103.053 102.537,102.663 101.722,101.985 101.463,101.601 100.944,100.667 100.629,100.245 100.234,99.88 99.763,99.536 
			99.268,99.252 98.818,99.07 97.77,98.908 97.502,98.699 97.648,98.206 97.852,98.162 98.068,98.345 98.202,98.404 98.162,97.99 
			98.028,97.727 97.633,97.449 97.528,97.225 97.363,96.762 96.774,95.774 96.679,95.499 95.699,95.915 95.73,97.096 95.295,97.938 
			94.858,98.16 94.818,98.708 95.482,99.214 95.466,99.625 94.593,99.379 93.783,98.972 93.536,99.404 93.4,99.906 93.787,100.292 
			94.141,100.877 94.003,101.384 94.034,102.113 94.565,102.984 94.701,103.922 95.346,105.034 96.107,106.041 97.29,108.236 
			97.933,110.778 98.162,111.172 98.972,112.028 99.054,112.734 98.945,113.458 99.505,114.791 99.851,115.303 100.268,115.395 
			100.711,115.439 101.601,115.808 102.005,116.684 102.653,117.248 103.465,117.68 105.337,117.978 106.588,119.039 
			107.045,119.534 107.118,120.234 107.604,121.537 107.999,122.874 108.447,123.736 108.979,124.443 109.296,124.945 
			109.639,125.341 113.741,127.022 114.488,127.635 114.882,128.87 114.635,131.351 114.237,132.207 112.617,131.491 
			112.215,131.817 112.116,132.472 111.919,133.151 111.382,133.425 110.756,133.38 110.343,133.142 110.363,132.806 
			110.482,132.44 110.854,132.007 110.959,131.749 110.961,131.367 110.806,131 110.509,130.747 110.146,130.617 109.805,130.617 
			109.587,130.724 109.233,131.093 109.02,131.261 108.631,131.415 108.23,131.473 107.378,131.476 107.217,131.336 
			106.611,130.694 106.046,130.409 105.508,129.984 104.939,130.634 104.683,131.028 104.505,131.49 104.182,131.599 
			103.816,131.674 103.662,132.372 104.022,133.041 105.547,133.422 107.761,134.248 108.214,134.707 107.783,136.053 
			107.654,137.287 108.816,138.445 109.547,139.63 109.148,140.086 108.623,140.279 106.836,139.652 106.325,139.632 
			106.177,140.344 106.148,141.376 106.482,141.799 107.284,143.062 108.183,144.24 108.927,144.84 109.733,145 110.283,144.676 
			110.774,145.105 111.63,147.944 110.718,149.871 112.638,151.436 114.685,152.052 115.027,151.599 114.652,150.957 
			115.195,150.523 115.907,150.334 115.742,149.485 115.393,148.422 116.456,146.908 118.312,146.916 119.555,146.755 
			119.915,146.598 119.628,146.07 119.443,145.241 119.726,144.512 120.819,143.243 121.617,141.977 121.378,140.958 
			121.49,140.628 121.625,140.342 121.362,138.753 121.792,138.008 122.473,137.505 123.072,137.162 125.168,136.596 
			126.747,137.435 127.47,137.572 128.122,137.598 128.499,137.16 128.762,136.714 128.916,136.29 129.042,135.792 129.398,135.327 
			129.859,134.96 130.156,134.846 130.36,134.957 130.817,134.72 131.104,134.14 132.25,133.704 132.392,133.371 132.597,133.075 
			132.839,132.348 133.443,132.14 133.87,131.924 134.204,131.105 133.83,130.001 133.654,128.97 135.225,127.801 138.149,126.562 
			139.011,125.689 139.406,124.692 139.37,123.561 139.139,122.984 139.304,122.507 139.92,122.241 140.604,122.145 
			141.254,121.846 141.812,121.364 142.315,120.791 142.688,120.629 143.016,120.388 143.121,120.014 143.193,119.625 
			143.66,119.048 143.686,118.337 143.559,117.114 143.173,116.38 143.429,116.114 144.342,116.367 145.409,117.34 146.534,118.158 
			147.706,118.824 148.582,117.464 149.441,112.494 150.469,110.024 151.323,109.104 151.89,107.911 		"/>
		
			<path fill-rule="evenodd" clip-rule="evenodd" fill="#878787" stroke="#F9F9F9" stroke-width="0.25" stroke-linecap="round" stroke-linejoin="round" d="
			M70.592,59.412l0.429-0.052l0.373-0.148l0.196-0.266l-0.047-0.402l-0.228-0.327l-0.264-0.259l-0.131-0.201l-0.354-0.024
			l-0.611,0.36l-0.302,0.603l0.587,0.7L70.592,59.412z M70.198,76.286l-0.169,0.387l0.015,0.54l0.148,0.376l0.237-0.092l0.286-0.279
			l0.272,0.054l0.627,0.528l-0.161,0.237l1.093,0.397l0.56,0.082l0.524-0.069l0.498-0.185l0.198-0.008l0.338,0.041l0.105-0.077
			l0.039-0.234l-0.064-0.309l-0.273-0.642l-0.014-0.309l0.25-0.268l0.355-0.103l0.177-0.163l-0.279-0.433l-0.309-0.336l-0.15-0.094
			l-0.522,0.314l-1.012,0.982l-0.439,0.309l-0.288-0.155l-0.246-0.317l-0.303-0.175l-1.294,0.031L70.198,76.286z M82.297,61.816
			l-0.581-0.692L81.681,61l0.013-0.147l-0.016-0.128l-0.093-0.052l-0.147-0.025l-0.152-0.067l-0.147-0.098l-0.124-0.116
			l-0.395-0.543l-0.036-0.37l0.101-0.346l0.035-0.479l0.102-0.251l0.202-0.327l0.094-0.281l-0.244-0.121L80.617,57.6l-0.69-0.275
			l-0.725-0.417l-0.412-0.378l-0.101-0.363l0.474-0.245l-0.834-0.574l-0.136-0.188l-0.11-0.399l-0.203-0.293l-0.249-0.193
			l-0.271-0.1l-0.654,0.1l-0.234,0.489l0.174,0.633l0.572,0.525l-0.246,0.319l-0.322,0.123l-0.768-0.009l0.357,0.535l0.552,0.263
			l0.384,0.273l-0.152,0.548l-0.041,0.342l0.105,0.428l0.051,0.396l-0.206,0.257l-0.206-0.082l-0.761-0.801l0.267,0.755l0.66,0.638
			l0.771,0.32l0.571-0.201l0.212,0.234l0.112,0.177l0.027,0.193l-0.054,0.278l0.604-0.146l0.211-0.008l0.224,0.154l0.118,0.278
			l0.157,0.801l0.174,0.327l0.275-0.008l0.355-0.224l0.323-0.108l0.188,0.339l0.062,0.4l0.132,0.381l0.228,0.237l0.356-0.043
			l0.212-0.235l0.377-1.063L82.297,61.816z M77.796,82.701l-0.222-0.124l-0.347-0.109l-0.606-0.458l-0.275-0.101l-0.226,0.054
			l-0.79,0.397l-0.131-0.046l-0.153-0.126l-0.165-0.065l-0.55,0.417l-0.414,0.14l-0.263,0.201l-0.297,0.126l-0.409-0.106
			L72.55,82.35l0.107-1.445l-0.397-0.724l-0.564-0.22l-0.826-0.095l-0.583,0.149l0.166,0.525l0.515,0.773l-0.291,0.236l-0.652,0.026
			l-0.563,0.154l-0.058-0.827l-0.292-0.724l-0.745-1.494h-0.176l-0.268,3.456L67.718,82.5l-0.165,0.041l-0.167-0.221l-0.195-0.41
			l-0.194-0.605l0.096-0.278l0.228-0.206l0.212-0.381l-0.036-0.956l-0.604-0.363h-1.608l-1.226-0.263l-0.396,0.067l-0.302,0.175
			l-0.245,0.242l-0.196,0.304l-0.171,0.361l-0.201-0.243l-0.009,0.335l0.074,0.436l0.016,0.386l-0.188,0.163l-0.34-0.178
			l-0.167-0.431l-0.2-1.347l-0.005-0.185l-0.135-0.116l-0.44-0.248l-0.165-0.252l0.213-0.25l0.339-0.24l0.208-0.231l-0.465-0.113
			l-0.89,0.138l-0.224-0.025l-0.026-0.216l0.373-0.463l0.367-0.273l0.856-0.462h0.371l0.472,0.869l0.512,0.113l-0.083,0.273
			l0.013,0.237l0.118,0.196l0.235,0.16l0.627-0.363l0.381,0.124l0.37,0.296l0.576,0.16l-2.127-4.761l-0.49-0.78l-0.595-0.548
			l1.126,0.409l0.422,0.044l0.602-0.242l1.101-0.683l0.097-0.172l-0.297-0.222l-0.306,0.008l-1.041,0.424l-0.713-0.051l-0.369-0.098
			l-0.276-0.175l-0.374-0.346l-0.133-0.087l-0.066-0.649l-0.127-0.425l-0.35-0.559l-0.048-0.418l0.128-0.221l0.498-0.335
			l0.142-0.329l-0.224-0.232l-0.23-0.18l-0.24-0.137l-0.261-0.079l-0.029-0.237l0.582-0.031l-0.008-0.536l-0.642-1.396l0.704,0.268
			l0.482,0.628l0.708,1.499l0.045-0.504l-0.01-0.569l-0.117-0.541l-0.519-0.843l-0.521-1.306l-0.118-0.439l0.431-0.078l2.135,0.113
			l0.761-0.134l-0.64-0.191l-0.728-0.098l-0.604-0.231l-0.271-0.58l0.014-0.347l0.071-0.032l0.108,0.053l0.125-0.106l0.015,0.054
			l0.069,0.07l0.091,0.034l0.084-0.05l0.051-0.141l-0.063-0.057l-0.092-0.042l-0.023-0.084l0.104-0.425l-0.04-0.178l-0.699-0.281
			l-1.16-0.735l-0.938-0.93l-1.713-2.225l-0.373-0.371l-0.434,0.291l-2.243,2.138l-0.688,0.555l0.12,0.206l0.051,0.054l0.065,0.029
			l0.169,0.144l-0.038,0.412l-0.146,0.111l-0.215,0.012l-0.242,0.111l-0.62,0.648l-0.722,0.342l-0.302,0.217l-0.358,0.415
			l-0.376,0.301l-0.501,0.162l-1.082,0.078l-0.422-0.162l-0.381-0.237l-0.271,0.074l-0.103,0.757l-0.377-0.199l0.297,1.015
			l0.632,0.536l0.838,0.185l1.495-0.113l0.213-0.142l0.28-0.301l0.359-0.541l0.172-0.016l0.868,0.502l0.064,0.183l-0.503,0.51
			l-0.063,0.36l0.264,0.355l0.352,0.344l0.243,0.346l-0.37,0.481l-0.076,0.162l0.025,0.103l0.21,1.651l0.133,0.234l0.171-0.474
			l0.242,0.363l-0.066,1.415l0.3,0.618l0.128-0.073l0.383-0.145l-0.1,0.301l-0.366,0.354l-0.141,0.211l-0.054,0.472l0.015,0.518
			l-0.062,0.355l-0.276-0.026l-0.187,0.633l-0.302-0.355l-0.35-0.724l-0.311-0.441l0.04,0.217l0.03,0.448l0.042,0.221l-0.562-0.345
			l-0.251-0.083l-0.31-0.025l0.096-0.333l-0.009-0.301l-0.133-0.255l-0.266-0.193l0.345-0.046l0.363-0.15l0.237-0.165l-0.038-0.072
			l-0.283-0.047l-1.084-0.386l0.354-0.309l-0.019-0.356l-0.288-0.293l-0.445-0.118l-0.398-0.245L50.5,67.848l-0.574-0.479
			l-0.514-1.038l-0.39-0.233l-0.355,0.134l-0.207,0.334l-0.31,0.846l-0.193-0.454l-0.022-0.433l0.174-0.86L47.784,65.7l-0.176,0.18
			l-0.07,0.284l-0.025,0.365l0.342,1.452l0.938,1.456l4.098,4.438l1.633,2.411l0.665,1.419l0.938,2.98l1.497,3.611l0.362,0.557
			l0.552,0.27l0.58-0.208l0.489-0.487l0.287-0.556l0.677,0.556l0.209-0.013l0.206-0.327l0.086-0.355l0.06-0.765l0.172-0.391
			l0.612-0.51l0.825-0.247l1.724-0.088l1.688,0.293l-0.058,0.348l-0.21,0.317l-0.283,0.231l-0.287,0.085L65.071,83.4l0.14,0.704
			l0.41,0.312l0.56-0.778l0.291,0.467l0.254,0.605l0.292,0.407l0.38-0.145l0.543,0.417l1.372,0.521l-0.002,0.342l0.262,0.371
			l0.178,0.433l-0.022,0.357l-0.34,0.152l-0.362-0.193l-1.116-1.121l-0.623,0.062l-0.523,0.457l-0.902,1.266l-0.062-0.688
			l-0.185-0.074l-1.24,1.205l-0.359,0.186l0.484,0.213l1.32,0.239l0.51-0.02l-0.341,0.304l-0.33,0.035l-0.777-0.142l-0.267,0.219
			l0.129,0.495l0.42,0.815l-0.181,0.744l-0.489-0.35l-0.471-0.793l-0.231-1.02l-1.605-2.505l0.018-0.188l0.201-0.346l0.013-0.331
			l-0.287-0.266l-0.392-0.129l-0.985,0.309l-0.742-0.17l-0.415,0.041l0.29,0.878l1.346,2.037l0.239,0.674l0.132,0.278l0.746,1.135
			l0.393,1.004l0.721,1.302l1.462-0.232l1.392-1.025l2.126-0.684l2.682-0.683l2.819-0.684l2.31-0.341l-0.139-2.222l0.339-1.708
			l0.405-1.197l0.896,0.513l1.313-0.732l-0.219-0.312L77.796,82.701z M64.519,64.582L64.5,64.963l0.349,0.781l0.031,0.353
			l-0.342,0.282l0.267,0.124l0.92,0.026l0.372-0.129l0.013-0.309l-0.27-0.765l-0.197-0.432l-0.384-0.374l-0.425-0.159L64.519,64.582
			z"/>
	</g>
</g>
</svg>
