<?xml version="1.0" encoding="utf-8"?>
<!-- Generator: Adobe Illustrator 16.0.0, SVG Export Plug-In . SVG Version: 6.00 Build 0)  -->
<!DOCTYPE svg PUBLIC "-//W3C//DTD SVG 1.1//EN" "http://www.w3.org/Graphics/SVG/1.1/DTD/svg11.dtd">
<svg version="1.1" xmlns="http://www.w3.org/2000/svg" xmlns:xlink="http://www.w3.org/1999/xlink" x="0px" y="0px" width="560px"
	 height="1061.052px" viewBox="0 200 560 1061.052" enable-background="new 0 200 560 1061.052" xml:space="preserve">
<g id="Layer_1" focusable="false">
	<path fill="#384D59" d="M280,515c86.953,0,157.5-70.547,157.5-157.5S366.953,200,280,200s-157.5,70.547-157.5,157.5
		S193.047,515,280,515z"/>
</g>
<g id="Layer_2">
	<path fill="#384D59" d="M-249.959,1099.06c0,6.627-5.373,12-12,12h-536c-6.627,0-12-5.373-12-12V886.071c0-6.627,5.373-12,12-12
		h536c6.627,0,12,5.373,12,12V1099.06z"/>
	<path fill="#384D59" d="M420,550h-60.266c-24.281,11.156-51.297,17.5-79.734,17.5s-55.344-6.344-79.734-17.5H140
		C62.672,550,0,612.672,0,690v17.5v450.807c0,56.744,46,102.745,102.745,102.745h354.51c56.744,0,102.745-46.001,102.745-102.745
		V707.5V690C560,612.672,497.328,550,420,550z"/>
</g>
</svg>
