<?xml version="1.0" encoding="utf-8"?>
<!-- Generator: Adobe Illustrator 16.0.0, SVG Export Plug-In . SVG Version: 6.00 Build 0)  -->
<!DOCTYPE svg PUBLIC "-//W3C//DTD SVG 1.1//EN" "http://www.w3.org/Graphics/SVG/1.1/DTD/svg11.dtd">
<svg version="1.1" xmlns="http://www.w3.org/2000/svg" xmlns:xlink="http://www.w3.org/1999/xlink" x="0px" y="0px"
	 width="175.212px" height="209.534px" viewBox="0 0 175.212 209.534" enable-background="new 0 0 175.212 209.534"
	 xml:space="preserve">
<g id="West_Coast">
</g>
<g id="Wellington">
</g>
<g id="Waikato">
</g>
<g id="Tasman">
</g>
<g id="Taranaki">
</g>
<g id="Southland">
</g>
<g id="Otago">
</g>
<g id="Northland">
</g>
<g id="Nelson">
</g>
<g id="Marlborough">
</g>
<g id="Manawatu-Whanganui">
</g>
<g id="Hawke_x27_s_Bay">
</g>
<g id="Gisbone">
</g>
<g id="Bay_of_Plenty">
</g>
<g id="South_island">
	<g>
		
			<polygon fill-rule="evenodd" clip-rule="evenodd" fill="#878787" stroke="#F9F9F9" stroke-width="0.25" stroke-linecap="round" stroke-linejoin="round" points="
			129.136,54.899 128.902,54.905 128.667,54.947 128.52,55.038 128.424,55.2 128.36,55.378 128.268,55.563 128.101,55.701 
			127.859,55.759 127.472,55.553 127.027,55.118 126.342,54.097 126.018,53.373 125.599,52.119 125.318,51.611 124.967,51.231 
			124.481,50.978 124.132,50.935 123.518,50.998 123.242,50.935 123.006,50.815 122.778,50.667 122.61,50.587 122.453,50.466 
			122.273,50.26 122.04,49.877 121.803,49.602 121.42,49.478 120.702,49.567 120.364,49.524 120.046,49.333 119.739,48.95 
			119.484,48.48 119.338,47.913 119.27,47.478 119.142,47.108 118.882,46.858 118.612,46.748 118.297,46.573 118.011,46.317 
			117.682,45.747 117.47,45.309 117.348,44.981 117.384,43.496 117.904,43.034 118.072,42.597 118.224,41.812 118.173,41.067 
			118.017,40.55 117.898,40.276 117.736,40.001 117.652,39.755 117.606,39.556 117.592,39.048 117.66,38.741 117.829,38.421 
			118.271,38.017 118.625,37.794 119.042,37.624 120.272,37.447 120.507,37.271 120.469,36.868 120.345,36.474 120.374,36.086 
			120.607,35.774 121.177,35.573 121.553,35.366 121.805,35.034 122,34.337 122.129,33.589 122.223,32.365 122.3,31.946 
			122.483,31.62 123.543,30.854 123.722,30.458 123.759,30.109 123.701,29.81 123.375,29.435 123.301,29.218 123.394,29.054 
			123.751,28.834 124.062,28.73 124.366,28.696 125.357,28.96 125.795,28.96 126.219,28.811 126.621,28.52 127.029,27.995 
			127.258,27.555 127.258,26.965 127.171,26.468 127.14,25.955 127.171,25.603 127.153,25.311 127.037,25.124 126.608,24.729 
			126.576,24.481 126.795,24.256 128.455,23.622 129.454,22.675 129.507,22.428 129.396,22.228 129.131,21.973 128.622,21.686 
			127.316,21.349 126.94,21.202 126.584,20.989 125.334,19.948 124.974,19.763 124.665,19.662 124.418,19.543 124.18,19.332 
			123.921,18.974 123.682,18.728 123.495,18.461 123.327,18.128 123.117,17.796 122.746,17.521 122.42,17.417 121.879,17.422 
			121.167,17.554 120.905,17.5 120.624,17.396 120.392,17.399 120.204,17.533 119.829,18.169 119.53,18.222 119.264,17.971 
			119.021,17.071 119.083,16.588 119.264,16.229 119.425,16.065 119.639,15.679 119.704,15.315 119.601,14.941 119.235,14.551 
			118.863,14.298 118.52,14 118.245,13.635 117.958,13.091 117.652,12.724 116.741,12.075 116.41,11.626 115.731,9.583 
			115.57,9.296 115.569,9.296 115.536,9.292 115.377,9.369 115.301,9.56 115.255,9.757 115.197,9.897 115.04,9.967 114.874,9.965 
			114.71,9.986 114.564,10.143 114.533,10.277 114.54,10.597 114.482,10.767 114.002,11.504 113.775,12.11 113.633,12.294 
			113.425,12.374 113.108,12.392 112.929,12.628 113.011,13.165 113.315,14.116 113.866,17.422 114.284,19.001 114.287,19.283 
			114.181,19.976 114.183,20.345 114.97,23.696 115.177,24.071 115.811,24.926 115.509,24.935 115.238,25.067 115.031,25.203 
			114.921,25.245 114.668,25.163 114.593,25.452 114.637,26.185 114.733,26.841 114.743,27.196 114.505,27.783 114.499,28.068 
			114.571,28.368 114.712,28.648 114.222,28.826 113.552,29.253 112.98,29.764 112.767,30.208 112.803,30.57 112.78,30.896 
			112.699,31.188 112.541,31.46 112.435,31.562 112.369,31.606 112.342,31.677 112.409,32.304 112.348,32.418 112.236,32.44 
			112.129,32.595 111.521,34.479 111.257,34.987 111.052,35.202 110.827,35.36 110.66,35.542 110.608,36.25 110.377,36.316 
			110.032,36.258 109.673,36.332 109.484,36.501 108.968,37.174 106.842,38.552 105.685,39.03 105.5,39.044 105.027,39.013 
			103.324,39.237 101.788,39.03 101.44,39.297 101.719,40.719 101.781,40.89 101.927,41.112 102.074,40.888 102.296,41.231 
			101.985,42.376 101.917,43.362 101.67,43.956 101.583,45.851 101.456,46.538 101.184,47.071 100.496,48.018 100.413,48.259 
			100.291,49.001 100.299,49.672 100.052,50.782 100.18,55.219 99.894,56.578 98.978,58.261 98.941,58.958 99.375,59.56 
			100.183,59.78 101.816,59.696 102.453,59.522 102.974,59.198 102.123,60.194 99.347,60.212 98.862,60.358 98.445,60.905 
			97.253,64.171 96.852,64.411 96.419,65.469 96.1,66.023 95.742,66.257 95.505,66.369 95.316,66.624 95.054,67.193 94.93,67.576 
			95.021,67.794 95.583,68.221 96.128,68.933 96.363,69.593 96.481,70.26 96.692,70.993 96.821,71.271 96.976,71.513 97.213,71.756 
			97.564,72.035 98.066,72.349 98.247,72.528 98.391,72.837 97.054,71.991 96.826,71.719 96.478,71.484 95.868,71.405 
			95.477,71.592 95.789,72.139 96.387,72.904 96.976,74.024 97.235,75.094 96.866,75.725 96.507,74.176 96.25,73.447 95.108,71.859 
			95.325,71.405 95.879,71.089 96.264,70.599 96.173,69.906 95.781,69.079 95.244,68.396 94.709,68.106 94.064,68.047 
			93.838,68.127 93.57,68.42 92.047,71.708 91.685,72.035 91.272,72.276 90.597,73.442 90.242,73.879 89.408,74.292 89.167,74.495 
			88.911,74.824 88.908,74.994 89.042,75.195 89.472,76.325 90.287,77.384 90.516,78.184 89.82,77.437 88.972,76.134 88.095,75.11 
			87.325,75.213 86.488,75.901 84.397,76.607 83.501,77.159 85.792,77.979 86.867,78.625 87.712,79.614 87.179,79.153 
			83.812,77.574 83.139,77.49 83.15,77.995 82.572,77.793 82.239,78.059 81.975,78.491 81.59,78.8 81.842,79.08 82.297,79.14 
			82.551,79.409 81.846,79.614 79.363,79.614 79.407,79.839 81.825,80.688 82.595,81.274 83.209,81.995 83.455,82.449 
			83.463,82.943 83.547,83.501 83.549,83.729 83.372,84.323 83.368,84.569 83.216,84.569 82.929,83.95 82.739,82.724 82.547,82.094 
			82.245,81.571 81.835,81.085 81.327,80.772 80.747,80.522 79.69,80.308 78.686,80.72 78.011,81.606 77.78,82.908 78.301,82.536 
			78.705,81.753 79.212,81.138 80.03,81.274 78.85,83.544 78.55,83.476 77.957,83.182 77.659,83.114 77.275,83.174 76.964,83.319 
			76.412,83.729 75.853,83.958 75.643,84.147 75.537,84.569 75.543,85.054 75.674,85.245 75.942,85.376 76.36,85.69 76.853,86.311 
			77.114,86.869 76.974,87.071 76.264,86.613 75.08,85.612 74.572,85.512 74.512,86.306 74.285,86.779 71.255,88.238 70.789,88.63 
			70.381,89.19 70.348,89.842 70.931,90.195 71.785,90.333 72.554,90.316 73.162,90.181 73.454,90.178 73.736,90.316 72.717,90.688 
			72.258,90.764 71.602,90.747 70.167,90.527 69.542,90.634 69.141,91.156 70.236,91.642 70.795,92.011 71.091,92.478 
			71.304,93.427 71.196,93.572 70.722,93.202 70.069,92.171 69.655,91.787 69.113,91.861 68.818,92.244 68.194,93.373 67.848,93.61 
			67.369,93.738 66.26,94.632 65.724,94.686 64.682,94.49 63.95,95.064 63.006,95.316 62.701,95.64 62.654,96.268 62.919,96.865 
			63.357,97.417 63.832,97.908 63.665,97.908 63.091,97.755 62.769,97.248 62.549,96.619 62.272,96.066 62.017,95.829 
			61.792,95.777 61.134,95.843 60.904,95.917 60.63,96.104 60.411,96.344 60.344,96.577 60.141,97.017 59.528,97.337 58.352,97.702 
			56.766,98.773 56.307,98.932 55.904,99.159 55.16,100.159 54.743,100.384 54.513,100.456 53.911,100.837 53.757,101 
			53.713,101.244 53.805,101.453 54.298,102.022 55.086,103.122 55.58,103.646 56.105,103.867 56.638,104.005 58.096,104.749 
			58.621,105.11 58.04,105.152 56.513,104.312 55.805,104.089 55.5,104.045 55.112,103.913 54.755,103.688 53.774,102.022 
			53.351,102.121 51.919,102.868 51.541,103.157 51.148,103.573 50.138,104.263 48.907,105.577 47.707,106.312 46.376,106.705 
			45.169,106.547 44.563,106.07 44.068,105.535 43.606,105.332 43.101,105.843 42.901,105.929 42.251,105.866 41.948,106.042 
			41.755,106.262 41.312,106.579 40.554,106.954 39.675,107.144 38.164,107.233 37.694,107.352 37.256,107.568 37.833,107.921 
			38.015,107.997 37.751,108.107 37.494,108.267 37.262,108.473 37.053,108.714 36.925,109.073 36.927,109.448 36.971,109.761 
			36.974,109.945 36.344,110.861 35.543,111.702 34.184,112.614 33.473,113.542 33.06,113.8 31.973,114.143 32.015,114.349 
			32.667,114.558 32.937,114.819 32.937,114.82 34.197,114.431 35.432,114.364 36.375,114.715 37.315,115.21 37.899,115.712 
			38.535,116.359 38.916,116.968 39.333,117.491 39.263,118.193 39.166,118.694 38.952,121.102 41.978,120.818 46.39,118.779 
			47.962,118.583 48.575,118.207 49.333,117.357 49.742,116.601 50.061,115.156 50.106,114.565 50.228,113.923 50.586,113.437 
			51.057,112.943 51.833,112.501 52.52,111.562 52.676,111.011 52.878,110.715 53.891,109.885 54.936,109.438 55.954,109.289 
			57.178,109.347 58.682,109.137 59.524,108.704 60.255,108.682 60.733,108.965 61.418,109.267 62.26,109.456 63.142,109.007 
			63.855,108.448 64.801,107.994 65.602,107.437 66.258,107.1 66.638,106.52 66.875,105.901 67.19,105.374 67.789,105.281 
			68.249,105.274 69.049,105.661 70.101,104.287 70.821,103.544 71.488,102.675 74.807,99.882 75.271,98.813 75.74,98.282 
			76.044,97.469 76.577,96.792 77.056,95.977 77.265,95.22 77.514,94.57 78.037,93.898 79.68,92.376 80.371,91.969 82.715,91.188 
			85.73,89.5 86.837,89.079 87.665,88.966 88.109,89.102 88.765,89.108 90.727,86.727 94.507,83.671 96.79,82.545 97.61,81.982 
			98.72,79.61 99.579,79.073 100.129,79.116 101.988,78.569 102.406,78.309 102.642,77.992 102.682,77.646 102.769,77.194 
			102.993,76.636 103.885,75.716 104.395,75.345 105.345,74.979 106.149,74.917 106.587,74.834 106.935,74.627 107.387,74.274 
			108.253,73.956 108.567,73.944 108.822,74 109.013,74.105 109.161,74.12 109.336,74.096 110.213,73.845 111.243,73.775 
			112.124,73.589 113.378,73.625 113.718,73.42 113.928,73.131 114.003,72.785 114.023,72.384 114.172,71.562 114.218,70.78 
			114.263,70.46 114.371,70.325 115.605,69.962 116.991,69.141 116.976,68.583 117.032,68.234 117.503,67.6 117.946,66.835 
			118.374,66.435 119.016,65.976 119.376,65.876 120.095,65.828 120.521,65.683 121.12,65.376 121.743,64.813 122.191,63.605 
			123.177,62.81 123.382,62.489 123.568,62.058 124.02,61.583 124.194,61.298 124.363,60.849 124.672,60.483 126.012,59.411 
			127.105,58.404 127.786,58.109 128.237,58.015 128.834,57.772 129.089,57.461 129.173,57.112 129.195,56.776 129.421,56.182 
			129.507,55.839 129.558,55.544 129.593,54.961 		"/>
		
			<polygon fill-rule="evenodd" clip-rule="evenodd" fill="#878787" stroke="#F9F9F9" stroke-width="0.25" stroke-linecap="round" stroke-linejoin="round" points="
			145.043,30.526 144.966,29.733 144.986,29.077 144.95,28.628 145.059,27.874 144.078,27.456 142.972,26.623 142.314,25.871 
			142.151,25.495 141.843,25.548 140.676,25.54 140.102,25.422 139.624,25.169 139.369,24.719 139.43,24.492 139.832,24.304 
			139.946,24.116 139.886,23.88 139.441,23.06 139.002,21.825 138.741,21.435 138.534,21.813 138.366,21.813 138.238,21.468 
			138.063,21.245 137.611,20.872 137.48,20.606 137.475,19.515 137.731,19.628 137.958,19.819 138.153,20.06 138.293,20.345 
			138.323,19.849 138.058,19.437 137.711,19.036 137.493,18.573 137.369,18.106 136.826,16.591 136.606,16.734 136.422,16.775 
			136.226,16.724 135.969,16.591 136.528,16.114 137,15.553 137.224,15.157 137.247,14.948 137.139,14.679 136.956,14.116 
			136.99,12.77 137.039,12.622 136.696,12.167 136.355,12.062 135.986,12.085 135.553,12.016 135.81,11.702 135.799,11.452 
			135.606,11.167 135.646,10.561 135.593,10.278 135.403,9.897 134.976,9.43 134.611,9.396 134.303,9.672 134.05,10.143 
			133.733,9.797 133.534,9.774 133.19,10.143 133.172,10.285 133.29,10.683 133.206,10.767 132.881,10.795 132.765,10.849 
			132.229,11.297 131.922,11.421 131.582,11.312 129.162,9.725 128.162,8.91 127.676,8.042 127.18,8.307 127.042,8.459 
			126.827,7.967 126.986,7.06 126.906,6.543 126.762,6.404 126.313,6.25 126.155,6.146 125.677,5.33 126.116,5.372 126.462,5.35 
			126.56,5.111 126.229,4.477 126.553,4.178 126.692,3.598 126.765,2.389 126.908,1.758 127.117,1.452 127.495,1.352 133.01,1.765 
			133.551,1.551 132.715,1.472 131.147,1.071 129.481,0.876 124.523,1.108 123.462,1.661 122.676,2.804 123.013,2.925 
			123.364,2.872 123.696,2.682 123.967,2.389 124.069,2.498 124.408,2.804 124.431,3.085 123.705,3.404 123.889,3.849 
			123.755,3.997 123.568,4.155 123.356,4.245 122.914,4.051 122.761,4.252 122.666,4.536 122.563,4.686 122.183,4.554 
			122.162,4.215 122.41,3.205 121.527,3.548 120.59,4.536 118.537,7.413 117.382,8.342 117.296,8.459 117.011,8.546 116.38,8.995 
			116.086,9.281 115.908,9.31 115.57,9.296 115.731,9.583 116.41,11.626 116.741,12.075 117.652,12.724 117.958,13.091 
			118.245,13.635 118.52,14 118.863,14.298 119.235,14.551 119.601,14.941 119.704,15.315 119.639,15.679 119.425,16.065 
			119.264,16.229 119.083,16.588 119.021,17.071 119.264,17.971 119.53,18.222 119.829,18.169 120.204,17.533 120.392,17.399 
			120.624,17.396 120.905,17.5 121.167,17.554 121.879,17.422 122.42,17.417 122.746,17.521 123.117,17.796 123.327,18.128 
			123.495,18.461 123.682,18.728 123.921,18.974 124.18,19.332 124.418,19.543 124.665,19.662 124.974,19.763 125.334,19.948 
			126.584,20.989 126.94,21.202 127.316,21.349 128.622,21.686 129.131,21.973 129.396,22.228 129.507,22.428 129.454,22.675 
			128.455,23.622 126.795,24.256 126.576,24.481 126.608,24.729 127.037,25.124 127.153,25.311 127.171,25.603 127.14,25.955 
			127.171,26.468 127.258,26.965 127.258,27.555 127.029,27.995 126.621,28.52 126.219,28.811 125.795,28.96 125.357,28.96 
			124.366,28.696 124.062,28.73 123.751,28.834 123.394,29.054 123.301,29.218 123.375,29.435 123.701,29.81 123.759,30.109 
			123.722,30.458 123.543,30.854 122.483,31.62 122.3,31.946 122.223,32.365 122.129,33.589 122,34.337 121.805,35.034 
			121.553,35.366 121.177,35.573 120.607,35.774 120.374,36.086 120.345,36.474 120.469,36.868 120.507,37.271 120.272,37.447 
			119.042,37.624 118.625,37.794 118.271,38.017 117.829,38.421 117.66,38.741 117.592,39.048 117.606,39.556 117.652,39.755 
			117.736,40.001 117.898,40.276 118.017,40.55 118.173,41.067 118.224,41.812 118.072,42.597 117.904,43.034 117.384,43.496 
			117.348,44.981 117.47,45.309 117.682,45.747 118.011,46.317 118.297,46.573 118.612,46.748 118.882,46.858 119.142,47.108 
			119.27,47.478 119.338,47.913 119.484,48.48 119.739,48.95 120.046,49.333 120.364,49.524 120.702,49.567 121.42,49.478 
			121.803,49.602 122.04,49.877 122.273,50.26 122.453,50.466 122.61,50.587 122.778,50.667 123.006,50.815 123.242,50.935 
			123.518,50.998 124.132,50.935 124.481,50.978 124.967,51.231 125.318,51.611 125.599,52.119 126.018,53.373 126.342,54.097 
			127.027,55.118 127.472,55.553 127.859,55.759 128.101,55.701 128.268,55.563 128.36,55.378 128.424,55.2 128.52,55.038 
			128.667,54.947 128.902,54.905 129.136,54.899 129.593,54.961 130.294,54.799 130.68,54.542 131.092,54.188 132.022,52.944 
			132.253,52.297 132.633,50.593 132.636,50.162 132.663,49.853 132.828,49.701 133.083,49.634 133.376,49.642 133.666,49.688 
			133.853,49.771 134.249,49.843 134.668,47.239 136.698,44.351 136.833,43.772 136.835,42.159 136.948,41.252 137.637,40.081 
			137.983,39.618 138.022,39.22 138.167,38.748 139.441,37.581 140.305,36.408 140.83,35.314 142.469,33.247 142.972,32.268 
			144.064,31.972 144.661,31.913 145.109,31.673 145.264,31.202 		"/>
		
			<path fill-rule="evenodd" clip-rule="evenodd" fill="#878787" stroke="#F9F9F9" stroke-width="0.25" stroke-linecap="round" stroke-linejoin="round" d="
			M34.633,205.8l-0.5,0.337l-0.199,0.428l0.273,0.364l0.518-0.157l0.513-0.367l0.263-0.256l-0.321-0.402L34.633,205.8z
			 M37.511,193.276l0.347-0.101l0.23-0.231l0.147-0.516l-0.365-0.227l-0.34-0.075l-0.348,0.04l-0.243,0.203l-0.016,0.403
			l0.245,0.396L37.511,193.276z M59.112,191.777l-0.229,0.256l-0.325,0.134l-0.369,0.035l0.277,0.38l0.325,0.293l0.218,0.268
			l-0.047,0.32l0.169-0.287l0.404-0.5l0.167-0.631l-0.521-0.673L59.112,191.777z M52.915,201.584l-1.23-0.639l-0.043-0.208
			l0.335,0.028l0.306,0.088l0.279,0.03l0.242-0.146l0.02-0.202l-0.01-0.771l0.058-0.289l-0.209-0.092l-0.249-0.162L52.179,199
			l-0.123-0.239l-0.109-0.124l-0.174,0.05l-0.289,0.165l-0.307,0.018l-1.225,0.41l-0.28-0.01l-0.043-0.207l0.169-0.106l0.09-0.127
			l0.051-0.156l0.049-0.215l-1.031-0.365l-0.648-0.145l-0.76-0.431l-0.269-0.098l-0.482,0.242l-0.649,0.94l-0.599,0.064l0.883-1.429
			l-0.001-0.337l-0.369-0.589l0.416-0.201l1.378,0.045l-0.08,0.414l2.247,0.189l0.561-0.189l-0.039-0.188l-0.543-0.227l0.395-0.392
			l-0.373-0.384l-0.61-0.277l-0.317-0.084l-0.228-0.416l-0.403-0.282l-0.46-0.243l-0.408-0.306l-2.721-2.632l-0.511-0.416
			l-0.536-0.342l-1.25-0.509l-0.267,0.055l-0.275,0.303l-0.282,0.155l-0.385-0.053l-0.697-0.207l-0.734,0.022l-0.51,0.155
			l-0.244,0.44l0.045,0.854l-0.017,0.168l-0.065,0.152l-0.003,0.171l0.148,0.224l0.144,0.147l0.104,0.13l0.075,0.148l0.049,0.195
			l-0.051,0.223l-0.14,0.225l-0.047,0.267l0.219,0.333l1.046,1.067l0.458,0.646l0.271,0.687l0.031,0.419l-0.066,0.329l-0.277,0.601
			l-0.268,0.245h-0.716l-0.264,0.161l0.022,0.654l0.358,0.809l0.248,0.728l-0.332,0.409l-0.334-0.025l-0.316-0.134l-0.332-0.08
			l-0.37,0.126l-0.504,0.334l-0.212,0.2l-0.184,0.307l-0.095,0.425l0.073,0.336l0.156,0.352l0.136,0.46l-0.04,0.38l-0.103,0.316
			l0.066,0.28l0.474,0.251l-0.765,0.356l-0.419,0.338l-0.462,0.059l-0.207,0.199l-0.178,0.479l-0.138,0.738l0.011,0.771l0.26,0.588
			l0.523,0.138l0.822-0.048l0.777-0.17l0.397-0.207l0.254-0.436l0.345-0.389l0.306-0.011l0.152,0.741l0.61-0.707l0.191-0.391
			l0.166-0.581l-1.369,0.491l-0.729,0.124l-0.521-0.405l0.659-0.213l1.06-0.856l0.436,0.238l0.001-0.737l-0.016-0.11l0.164-0.103
			l0.388-0.088l0.418-0.399l0.246,0.219l0.25,0.439l0.312,0.365l0.309,0.04l0.854-0.124l0.416,0.178l0.374,0.253l0.458,0.166
			l0.432,0.012l0.277-0.224l0.343-0.505l1.258-1.215l0.556-0.242l1.459-0.225h1.811l-0.378-0.474l0.904,0.316l0.236-0.153
			l-0.309-0.746l0.082-0.218l0.542,0.029l0.21,0.124l0.266,0.394l0.152,0.104l0.186,0.013l0.249-0.029l0.163-0.1l-0.082-0.193
			L52.915,201.584z M2.748,160.43l1.191-1.563l0.415-0.046l0.468,0.572l0.045,0.348l0.202,0.611l0.257,0.599l0.211,0.317
			l0.192,0.059l0.225-0.011l0.174-0.118l0.055-0.546l0.231,0.152l0.245,0.305l0.085,0.159l0.532-0.065l0.372-0.275l0.177-0.479
			l-0.043-0.665l-0.209-0.646l-0.349-0.694l-0.45-0.581l-0.524-0.311l-0.226-0.035l-0.452,0.026l-1.835,0.591l-0.62-0.018
			l-0.278,0.065l-0.094,0.448l-0.184,0.463l-0.053,0.094l-0.237,0.21l-0.187,0.492l-0.116,0.548l-0.044,0.398l0.484-0.156
			L2.748,160.43z M8.324,146.287l0.345,0.381l0.288,0.414l0.526,0.222l0.568,0.156l0.445,0.217l0.513,0.388l0.348,0.08l0.792-0.136
			l-1.343-2.031l-0.567-1.02l-0.453-1.09l-0.09-0.104l-0.08-0.075l-0.066-0.086l-0.035-0.147l-1.048,2.062l-0.1,0.295l0.076,0.132
			l-0.228,0.106L8.324,146.287z M73.302,184.847l-0.153-0.606l-1.249-1.188l-0.254-0.647l-0.153-0.789l-0.366-0.804l-0.453-0.765
			l-0.009-0.925l0.199-0.769l-0.018-0.872l-0.345-1.967l-1.123-1.673l-0.44-0.839l-0.115-0.771l-0.478-1.031l-0.872-1.026
			l-0.79-0.777l-0.418-0.978l-0.202-0.89l-0.073-0.856l-0.257-0.763l-0.443-0.651l-0.841-0.577l-0.494-0.406l-0.325-1.057
			l-0.269-0.618l-0.165-0.542l-0.158-0.839l-0.05-0.963l0.11-1.341l0.973-2.688l0.923-3.889l0.869-0.84l-0.689-1.285l-2.681-2.171
			l-0.979-0.457l-1,0.516l-2.009,3.401l-0.983,0.439l-0.981-0.127l-0.889-0.301l-0.819-1.058l-1.957-1.941l-1.027-1.521
			l-0.614-0.264l-3.951,1.731l-1.592,0.11l-0.991-0.046l-1.317-0.551l-0.52-0.904l-0.21-0.836l-1.068-1.428l-0.623-1.014
			l-0.293-0.877l0.386-2.555l-0.193-0.571l-1.499-0.561l-0.789-3.059l-0.86-0.803l-0.669-0.937l-0.445-0.983l-0.361-1.134
			l0.28-1.146l-0.089-2.408l-0.292-1.085l0.167-2.253l0.245-1.119l0.609-1.293l0.64-0.92l0.717-0.5l0.436-0.493l0.213-2.407
			l0.098-0.501l0.069-0.702l-0.417-0.523l-0.38-0.608l-0.636-0.647l-0.583-0.502l-0.94-0.495l-0.943-0.351l-1.234,0.066l-1.261,0.39
			l0.098,0.095l0.083,0.459l-0.191,0.521l-0.207,0.115h-2.221l0.326,0.987l-0.478,0.686l-0.783,0.544l-0.603,0.559l-1.626,2.039
			l-0.431,0.738l0.268,0.345l0.239,0.441l0.335,0.871l0.126,0.803l0.084,0.224l0.175,0.222l0.132,0.06l0.128,0.024l0.17,0.105
			l0.783,0.616l0.615,0.295l0.161,0.118l0.246,0.381l0.155,0.462l0.037,0.449l-0.103,0.347l-1.031-1.33l-0.389-0.314l-0.917-0.428
			l-1.267-0.869l-0.757-0.146l-0.668,0.267l-0.572,0.667l-0.151,0.125l-0.396,0.114l-0.144,0.09l-0.093,0.193l-0.11,0.428
			l-0.138,0.181l-1.236,0.329l-0.334,0.282l-0.115,0.431l0.173,0.316l0.735,0.507l1.136,1.008l0.46,0.205l-0.669-0.167l-0.503-0.218
			l-0.476-0.353l-0.582-0.579l-0.309-0.161l-0.235,0.121l-0.205,0.216l-0.429,0.211l0.103,0.225l0.351,0.396l0.268,0.524
			l0.775,0.627l0.179,0.612l-0.08,0.533l-0.177,0.396l-0.117,0.446l0.092,0.679l-0.503-0.293l-0.321-0.354l-0.159-0.439l0.004-0.557
			l0.137-0.426l0.155-0.217l0.028-0.205l-0.258-0.403l-0.923-0.664l-0.868,0.104l-0.588,0.666l-0.09,1.033l0.145,0.367l0.561,0.975
			l0.245,0.312l0.261,0.438l0.087,0.479l0.041,0.436l0.128,0.301l0.601,0.436l0.108,0.182l0.062,0.22l0.101,0.235l0.128,0.215
			l0.138,0.164l0.145,0.328l-0.415,0.062l-0.93-0.085l0.051-0.561l-0.255-0.369l-0.362-0.308l-0.28-0.408l-0.032-0.284l0.125-0.577
			l0.005-0.287l-0.137-0.291l-0.222-0.224l-0.209-0.174l-0.107-0.132l-0.527-0.932l-0.801,0.045l-1.687,0.989l0.16,0.145
			l0.305,0.336l0.165,0.134l-0.581,0.028l-0.446,0.084l-0.365,0.184l-1.036,0.923l-0.326,0.416l-0.021,0.425l0.34,0.257l3.272,3.999
			l0.486,0.117l-0.278,0.335l-0.601-0.263l-0.703-0.454l-0.563-0.237l-0.681-0.155l-0.714-2.791l-0.667-0.168l-0.558,0.198
			l-0.227,2.977l0.142,0.495l0.395,0.503l0.519,0.492l0.578,0.295l1.488,0.453l0.451,0.379l-1.52-0.147l-0.339,0.147l-0.061,0.233
			l0.199,0.606l-0.044,0.412l-0.336-0.267l-0.111-0.337l-0.044-0.4l-0.145-0.438l-1.214-1.356l-0.568-0.116l-0.487,0.503
			l-0.681,1.381l0.616,0.044l0.596,0.384l1.106,1.014l1.021,0.651l0.174,0.191l-0.145,0.218h-0.379l-0.441-0.134l-0.323-0.197
			l-1.205-1.17l-0.659-0.369l-0.734-0.014l-0.482,0.321l-0.071,0.502l0.352,1.348l0.177,0.345l0.519,0.328l0.277,0.604l0.348,0.601
			l0.135,0.399l0.469,0.217l1.961-0.181l0.594-0.141l0.855-0.383l0.917-0.015l0.01,0.037l-0.181,0.137l-0.072,0.328l0.075,0.574
			l0.095,0.14l0.306,0.316l0.388,0.22l0.854-0.04l0.417,0.108l-0.186,0.398l-0.409,0.166l-0.51-0.015l-0.484-0.138l-0.4-0.271
			l-0.58-0.727l-0.299-0.241l-0.461-0.038l-2.358,0.651l-0.37,0.205l-0.267,0.42l2.926,2.146l1.572,1.446l0.342,0.985l-0.194-0.145
			l-0.351-0.151l-0.211-0.116l-0.039,0.107l-0.088,0.078l-0.656-1.021l-0.312-0.713l-0.301-0.247l-0.344-0.18l-0.777-0.528
			l-0.142,0.163l-0.016,0.392l-0.087,0.389l-0.249,0.325l-0.26,0.157l-0.823,0.045l-0.253-0.13l0.205-0.28l0.539-0.437l0.15-0.388
			l-0.017-0.297l-0.158-0.266l-0.235-0.283l-0.829-0.624l-0.651,0.054l-0.627,0.286l-0.766,0.079l0.029-0.286l0.107-0.229
			l0.159-0.184l0.192-0.148l-1.111-0.434l-0.542-0.385l-0.304-0.512l-0.258-0.104L7.8,147.735l-0.67,0.776l-0.232,0.5l-0.061,0.379
			l0.15,0.329l0.392,0.351l0.494,0.274l1.057,0.433l0.519,0.319l0.151-0.698l0.442,0.271l0.538,0.744l0.429,0.716l-1.104-0.216
			l-1.326-0.68l-1.29-0.437l-0.989,0.505l-0.147,0.474l-0.054,1.818l-0.544,1.722l0.094,0.452l0.416,0.552l0.224,0.122l0.439,0.04
			l0.275-0.029l0.504-0.133l0.265-0.024l1.21-0.663l1.941-0.352l2.945-1.499l-0.05,0.763l-0.619,0.468l-1.491,0.436l0.367,0.331
			l0.396,0.12l0.822-0.018l-0.435,0.434l-0.683-0.035l-1.376-0.398l-0.699,0.106l-1.108,0.567l-0.629,0.134l-0.527,0.191
			l-0.17,0.497l0.124,0.67l0.341,0.723l0.435,0.1l2.295-0.306l-0.318,0.286l-1.232,0.334l-0.372,0.258l-0.226,0.321l-0.266,0.888
			l0.605,0.168l2.163-0.581l1.797,0.186l0.366-0.054l0.968-0.358l-0.169,0.63l-0.443,0.354l-1.09,0.458l-0.416,0.315l-0.194,0.2
			l-0.155,0.229l-0.239,0.198l-0.332,0.014l-0.745-0.107l-0.648,0.096l-1.209,0.429l-0.609,0.096L6.57,162.93l-0.686,0.18
			l-0.509,0.453l-0.231-0.228l0.139-0.207H3.595l-1.54,0.207l-0.337,0.297l-0.011,0.701l0.575,2.723l0.26,0.601l0.119,0.409
			l-0.016,0.351l0.053,0.247l0.212,0.38l0.264,0.354l0.212,0.157l0.163-0.117l0.458-0.553l0.285-0.176l2.195-0.599l0.291-0.333
			l0.024-0.298l0.463-0.943l0.12-0.13l0.393-0.281l-0.008-0.168l0.035-0.217l0.062-0.201l0.071-0.138l0.18-0.21l0.231-0.193
			l0.267-0.046l0.296,0.241l0.002,0.231l-0.151,0.315l-1.031,1.42l0.109,0.191l0.415,0.168l0.49,0.11l0.342,0.027l0.799-0.247
			l0.76-0.354l-0.265,0.685l-0.577,0.267l-1.408,0.305l-0.602,0.39l-0.366,0.467l-0.13,0.658l0.124,0.969l-0.431-0.21l-0.166,0.237
			l0.02,0.481l0.114,0.526l1.697-0.333l0.688-0.392l0.124-0.947l0.317,0.222l0.054,0.254l-0.049,0.231l0.013,0.153l0.271,0.265
			l0.066,0.013l0.018-0.124l0.606-0.725l0.088-0.063l-0.018-0.291l-0.117-0.2l-0.106-0.22l0.017-0.343l0.28-0.387l0.512-0.285
			l0.991-0.347l1.32-0.778l0.519-0.066l0.04,0.189l-0.533,0.321l-0.948,0.799l-0.682,0.157l-0.448,0.261l-0.26,0.616l-0.386,1.415
			l-0.614,1.036l-0.737,0.923l-0.211,0.162l-0.633,0.273l-0.105,0.195l0.172,0.287l0.909,0.85l1.564,0.876l1.686,0.252l3.334-0.074
			l1.75,0.395l0.422,0.015l0.402-0.063l0.415-0.011l1.697,0.641l0.292,0.06l0.11,0.094l0.146,0.184l0.162,0.122l0.151-0.09
			l0.125-0.121l0.176-0.089l0.383-0.1l0.535,0.03l1.072,0.339l0.496,0.044l0.334-0.119l0.656-0.407l0.375-0.113l0.835,0.054
			l0.353-0.096l0.238-0.372l0.048-0.449l-0.036-0.404l0.011-0.417l0.181-0.477l0.044-0.231l-0.083-0.494l0.101-0.216l0.186-0.059
			l2.851,0.263l0.373,0.081l1.286,0.656l0.521,0.138l1.012,0.09l0.424,0.277l0.132,0.608l0.791,0.872l1.549,1.437l-0.152,0.371
			l-0.257,0.18l-0.308,0.117l-0.3,0.178l0.336,0.213l0.635,0.292l0.278,0.204l0.463,0.562l0.272,0.271l0.296,0.116l0.288,0.296
			l0.282,0.207l0.3,0.102l0.13-0.06l0.309-0.287l0.153-0.068l0.196,0.03l0.378,0.156l0.266,0.08l0.3,0.038l0.271-0.08l0.068-0.318
			l0.146-0.289l0.466-0.013l0.76,0.104l0.283-0.106l0.441,0.119l0.468,0.18l0.375,0.1l0.027-0.163l-0.159-0.355l-0.059-0.354
			l0.317-0.162l2.311-0.367l0.724,0.16l0.483,0.378L49.439,182l0.763,1.252l0.371,0.414l0.507,0.051l0.378-0.437l0.098-0.71
			l-0.354-0.766l0.618-0.005l0.6,0.715l0.372,0.983l-0.059,0.81l-1.083,0.924l-0.112,0.205l-0.164-0.215l-0.025-0.134l-0.061-0.083
			l-0.271-0.075l-0.265-0.012l-0.708,0.2l0.12,0.352l0.16,0.267l0.217,0.172l0.678,0.184l0.206,0.285l0.105,0.287l0.111,0.129
			l0.599,0.229l1.077,0.933l0.688,0.102l-0.398-0.549l-0.909-0.819l-0.283-0.616l0.101-0.531l0.507,0.096l1.092,0.538l2.114-0.044
			l0.756,0.246l0.667,0.524l-0.4,0.172l-0.729-0.122l-0.323-0.347l-0.312-0.084l-0.872-0.015l-0.329,0.099l-0.174,0.136
			l-0.107,0.151l-0.199,0.522l4.271,0.377l1.23-0.377l-0.106-0.094l-0.202-0.227L59.289,187l0.252-0.316l-0.189-0.227l-0.37-0.271
			l-0.281-0.425l1.222,0.034l0.638,0.123l0.54,0.257l-0.302,0.148l-0.327,0.046l-0.273,0.105l-0.136,0.318l0.833,0.007l2.41-0.423
			l0.67-0.231h0.333l0.209,0.347l0.104,0.301l1.001,1.902l0.358,0.359l0.46,0.063l0.785-0.023l0.721,0.195l0.907,0.363l0.86,0.187
			l0.587-0.331l0.008-0.379l-0.15-0.373l-0.047-0.269l0.305-0.036l0.202,0.155l0.221,0.289l0.31,0.276l0.462,0.129h0.741
			l0.132-0.071l0.033-0.148l0.016-0.147l0.26-0.211l-0.157-0.679l0.177-0.214l0.319,0.07l-0.248-1.615l0.277-0.656L73.302,184.847z"
			/>
		
			<polygon fill-rule="evenodd" clip-rule="evenodd" fill="#878787" stroke="#F9F9F9" stroke-width="0.25" stroke-linecap="round" stroke-linejoin="round" points="
			69.049,105.661 69.564,107.319 69.418,108.063 68.979,108.983 68.708,109.791 68.292,110.381 67.86,111.208 67.663,111.798 
			67.296,112.493 67.358,113.152 68.424,118.594 68.64,119.323 68.865,119.781 69.69,120.062 70.498,120.608 71.034,121.388 
			71.817,123.382 72.407,123.952 73.024,124.236 73.694,124.139 74.525,124.942 76.163,126.231 77.937,126.022 78.796,126.354 
			79.705,127.179 80.497,128.248 81.7,130.423 82.905,132.216 83.843,133.25 84.489,133.828 85.327,134.184 87.094,134.302 
			89.181,133.887 90.126,133.931 90.638,134.209 91.069,134.8 91.11,135.461 91.418,136.297 91.812,139.575 92.513,140.352 
			93.088,140.768 95.254,139.57 98.498,134 99.297,133.615 100.221,133.39 101.184,133.37 102.943,133.007 104.189,133.164 
			104.193,133.162 110.738,135.172 111.44,135.588 111.536,135.947 110.393,141.169 108.137,143.617 107.285,146.135 
			107.108,148.285 106.903,148.916 106.757,149.682 107.17,150.055 107.663,150.404 107.749,151.097 107.017,152.036 
			106.869,152.445 106.928,152.774 107.085,153.104 107.219,153.491 106.982,154.04 106.377,154.445 105.961,154.914 
			106.28,155.655 106.057,156.017 105.796,156.195 105.457,156.162 104.985,155.882 105.079,156.211 105.222,156.52 
			105.554,157.103 105.211,157.437 104.918,157.555 104.032,157.531 103.567,157.685 103.641,157.996 104.055,158.288 
			104.626,158.357 104.261,159.454 104.1,159.618 103.839,159.686 103.562,159.857 103.134,160.238 102.944,160.303 
			102.773,160.256 102.664,160.272 102.676,160.536 102.731,160.823 102.786,160.981 102.902,161.051 103.127,161.061 
			103.519,161.178 103.881,161.366 104.203,161.408 104.462,161.061 104.974,161.396 105.674,161.688 106.23,162 106.318,162.403 
			105.94,162.692 104.792,162.902 104.344,163.128 104.001,163.784 103.858,163.976 103.658,164.044 103.39,164.097 
			103.168,164.207 103.011,164.976 102.201,165.503 102.067,166.021 102.485,165.812 103.326,165.605 103.959,165.045 
			104.994,164.671 105.275,164.385 105.514,163.696 105.74,163.335 106.038,163.139 106.332,163.069 106.583,162.926 
			106.764,162.509 107.088,162.892 107.274,163.359 107.508,165.016 107.372,165.412 107.041,165.567 106.525,165.605 
			106.021,165.576 105.93,165.621 105.712,165.795 105.622,165.996 105.667,166.203 105.646,166.37 100.674,166.828 98.705,167.444 
			97.117,168.604 96.048,170.384 95.804,171.09 95.781,171.438 95.882,172.347 95.772,172.907 95.778,173.185 95.726,173.827 
			95.402,174.401 94.944,174.861 94.486,175.158 93.287,175.621 92.749,175.956 92.329,176.514 92.019,177.067 91.648,177.528 
			88.687,179.616 88.042,180.629 88.03,182.219 88.25,183.025 88.198,183.335 87.555,183.554 87.069,183.984 86.893,184.082 
			86.461,184.018 85.584,183.733 85.156,183.666 84.749,183.718 84.101,183.988 83.727,184.082 84.137,184.222 86.115,184.308 
			85.836,185.355 85.163,185.808 84.346,186.105 83.66,186.698 83.309,186.67 82.633,186.444 81.919,186.293 81.451,186.492 
			81.195,186.748 80.041,187.414 80.208,187.558 80.521,187.911 80.688,188.057 80.065,188.238 79.205,188.022 78.446,187.973 
			78.137,188.68 77.558,188.328 77.389,188.264 76.525,188.133 76.104,188.167 75.815,188.356 75.413,188.831 75.159,189.015 
			74.883,189.095 74.056,189.197 73.719,189.148 73.343,188.866 73.313,188.259 73.181,187.911 73.134,187.901 73.134,187.901 
			72.886,186.286 73.164,185.63 73.302,184.847 73.149,184.24 71.901,183.053 71.647,182.405 71.494,181.616 71.128,180.812 
			70.675,180.048 70.667,179.123 70.865,178.354 70.848,177.482 70.503,175.516 69.38,173.843 68.939,173.004 68.825,172.233 
			68.347,171.202 67.475,170.176 66.685,169.398 66.267,168.421 66.065,167.531 65.992,166.675 65.734,165.912 65.292,165.261 
			64.451,164.684 63.957,164.277 63.632,163.221 63.363,162.603 63.198,162.061 63.04,161.222 62.99,160.259 63.1,158.918 
			64.073,156.23 64.996,152.342 65.865,151.502 65.175,150.217 62.494,148.046 61.515,147.589 60.515,148.104 58.506,151.506 
			57.522,151.945 56.541,151.818 55.652,151.518 54.833,150.46 52.876,148.519 51.849,146.997 51.235,146.733 47.284,148.465 
			45.692,148.575 44.701,148.529 43.384,147.979 42.864,147.074 42.654,146.238 41.585,144.811 40.963,143.797 40.669,142.92 
			41.056,140.365 40.863,139.794 39.364,139.233 38.575,136.175 37.715,135.372 37.045,134.436 36.601,133.452 36.239,132.318 
			36.519,131.173 36.43,128.765 36.138,127.68 36.305,125.427 36.55,124.308 37.159,123.015 37.799,122.095 38.516,121.595 
			38.952,121.102 41.978,120.818 46.39,118.779 47.962,118.583 48.575,118.207 49.333,117.357 49.742,116.601 50.061,115.156 
			50.106,114.565 50.228,113.923 50.586,113.437 51.057,112.943 51.833,112.501 52.52,111.562 52.676,111.011 52.878,110.715 
			53.891,109.885 54.936,109.438 55.954,109.289 57.178,109.347 58.682,109.137 59.524,108.704 60.255,108.682 60.733,108.965 
			61.418,109.267 62.26,109.456 63.142,109.007 63.855,108.448 64.801,107.994 65.602,107.437 66.258,107.1 66.638,106.52 
			66.875,105.901 67.19,105.374 67.789,105.281 68.249,105.274 		"/>
		
			<polygon fill-rule="evenodd" clip-rule="evenodd" fill="#878787" stroke="#F9F9F9" stroke-width="0.25" stroke-linecap="round" stroke-linejoin="round" points="
			151.135,17.985 151.084,17.765 151.041,17.786 150.66,18.145 150.498,18.565 150.804,18.896 150.653,19.228 150.439,19.214 
			150.203,19.09 149.983,19.105 149.814,19.308 149.523,20.035 149.234,20.37 148.851,20.632 148.039,20.968 148.097,20.751 
			148.126,20.474 148.075,20.237 147.904,20.138 147.659,20.237 147.448,20.679 146.861,20.923 145.531,22.333 144.762,23.577 
			144.405,24.015 143.616,24.501 142.806,25.241 142.362,25.459 142.151,25.495 142.314,25.871 142.972,26.623 144.078,27.456 
			145.059,27.874 145.668,27.653 146.413,27.122 147.399,26.087 149.082,22.991 149.976,22.075 150.594,21.155 150.9,20.575 
			151.158,19.513 151.205,18.531 		"/>
		
			<path fill-rule="evenodd" clip-rule="evenodd" fill="#878787" stroke="#F9F9F9" stroke-width="0.25" stroke-linecap="round" stroke-linejoin="round" d="
			M154.944,12.27l0.199,0.352l0.054-0.112l0.225-0.301l0.185,0.343l0.03,0.304l-0.124,0.236l-0.27,0.153l-0.017,0.125l0.009,0.105
			l-0.014,0.102l-0.082,0.105l0.353,0.168l0.365-0.021l0.341-0.146l0.284-0.209l0.052-0.139l0.041-0.216l0.071-0.202l0.163-0.088
			l0.584-0.207l0.125-0.15l0.238-0.379l0.136-0.076l0.509,0.029l0.102-0.029l0.096-0.352l-0.028-0.79l0.028-0.313l0.084-0.167
			l0.304-0.415l0.127-0.082l0.101-0.088l-0.078-0.206l-0.203-0.31l0.125-0.789l0.021-0.425l-0.061-0.438l-0.186-0.447l-0.097,0.184
			l-0.139,0.872l-0.176,0.343l-0.197,0.247l-0.494,0.453h0.861l-0.345,0.321l-0.755,0.238l-0.145,0.292l-0.204-0.499l-0.021-0.552
			l-0.079-0.447l-0.396-0.186l-0.194,0.13l-0.084,0.288l-0.029,0.416l-0.281-0.065l-0.112-0.254l-0.071-0.246l-0.146-0.042
			l-0.096,0.267l-0.135,1.161l0.01,0.448l0.151,0.498l0.263,0.403l0.324,0.311l0.348,0.245l0.031,0.193l-0.536-0.071l-0.387-0.275
			l-0.354-0.363l-0.435-0.333l-0.09,0.344l0.01,0.376L154.944,12.27z M170.258,21.595l-0.493-0.398l-1.082,1.344l-0.214,0.135
			l-0.609-0.056l-0.266,0.024l-0.074,0.045l-0.231,0.242l-0.105,0.124l-0.004,0.01l1.285,0.062l0.381-0.066l0.225-0.155l0.542-0.511
			l0.316-0.164l0.442-0.021l0.476,0.045l0.438-0.023l0.338-0.227l0.116-0.352l0.009-0.909l0.129-0.397l-0.149-0.404l-0.009-0.344
			l-0.098-0.23l-0.423-0.059l-0.306,0.133l-0.248,0.244l-0.291,0.211l-0.443,0.035l0.212,0.336l0.286,0.206l0.312,0.036l0.287-0.164
			l0.107,0.559l-0.331,0.504L170.258,21.595z M171.547,38.369l-0.645-0.068L170.298,38l-0.323-0.526l-0.17-0.198l-0.796-1.654
			l-0.071-0.323l-0.472-0.008l-0.53,0.384l-0.711,0.761l-0.251,0.117l-1.623,0.348l-0.254,0.021l-0.028-0.077l0.48-0.306
			l1.409-0.589l0.63-0.443l0.595-0.678l0.224-0.586l-0.162-0.629l-1.73-2.152l-0.396-0.275l0.146,0.467l0.326,0.616l0.153,0.138
			l-0.024,0.611l-0.264,0.08l-0.297-0.16l-0.111-0.118l0.057-0.187l-0.18-0.398l-0.355-0.369l-0.488-0.096l0.084-0.504l-0.116-0.436
			l-0.42-0.922l-0.127-0.57l0.062-0.375l0.479-0.729l0.34-0.811l0.257-0.873l0.363-0.756l0.649-0.459l-0.102,0.438l0.354,0.08
			l0.446-0.479l0.265,0.077l-0.021,0.184l-0.322,0.66l-0.076,0.303l0.354-0.099l0.525-0.44l0.754-0.193l0.131-0.236l0.042-0.299
			l0.078-0.294l0.202-0.289l0.431-0.423l0.154-0.209l0.278-0.711l0.192-0.762l-0.922,0.73l-0.493,0.227l-0.659,0.08l-0.249,0.066
			l-0.316,0.297l-0.297,0.072l-0.332-0.08l-0.396-0.206l-0.387-0.271l-0.31-0.293l-0.219,0.084l-0.503,0.107l-0.443,0.303
			l-0.277-0.021l-0.283-0.079l-0.281,0.02l-0.407,0.275l-0.297,0.283l-0.35,0.138l-0.578-0.171l-0.237,0.161l-0.677,0.185
			l-0.587,0.014l0.019-0.359l0.305-0.295l0.408-0.26l0.443-0.113l0.412,0.143l0.129-0.316l0.241-0.127l0.31,0.043l0.331,0.193
			l0.338-0.438l0.641-0.177l1.316-0.007l0.342-0.066l0.153-0.162l0.104-0.196l0.17-0.198l0.459-0.289l0.019,0.062l0.076-0.035
			l0.304-0.101l0.106-0.054l-0.229-0.465l-0.219-0.27l-0.61-0.525l-0.246-0.305l-0.25-0.4l-0.031-0.252l0.398,0.146l0.038-0.295
			l0.121-0.369l0.139-0.22l0.101,0.143l0.195,1.24l0.16,0.308l0.242,0.005l0.215-0.129l0.088-0.08l-0.071-0.072l0.27-0.234
			l0.324-0.183l0.094,0.075l0.036-0.264l-0.065-0.589l0.099-0.298l0.994-1.898l0.112-0.523l-0.254-0.392l-0.339,0.124l-0.862,0.938
			l-0.428,0.633l-0.362,0.395l-0.461,0.162l-0.511-0.36l-0.155-0.265l-0.039-0.2l0.097-0.13l0.523-0.08l0.109-0.111l-0.006-0.219
			l-0.057-0.357l-0.195-0.435l-0.387-0.458l-0.453-0.35l-0.398-0.119l0.184,0.57l-0.17,0.486l-0.394,0.169l-0.488-0.392
			l-0.295,0.542l-0.452,0.146l-0.551-0.148l-0.586-0.333l-1.049-0.875l-0.463-0.174l0.056,0.639l-0.417-0.176l-0.153,0.12
			l0.078,0.303l0.265,0.392h-0.875l0.244,0.36l0.896,0.771l0.354,0.148l0.111-0.319l0.028-0.475l0.117-0.297l0.415,0.004
			l0.261,0.338l0.056,0.449l-0.332,0.619l0.162,0.297l0.519,0.599l-0.761,0.004l-0.272,0.337l-0.125,0.582l-0.322,0.734
			l-0.294-0.935l-0.009-0.47l0.187-0.486l-0.903-0.188l0.088,0.313l-0.004,0.191l-0.108,0.094l-0.217,0.031l-0.176,0.068
			l0.038,0.163l0.086,0.214l-0.019,0.191l-0.279,0.255l-0.287,0.205l-0.218,0.285l-0.05,0.48l0.37,0.93l0.668,0.031l1.263-0.525
			l-0.107,0.41l0.153,0.104l0.113,0.061l0.118,0.021l0.169,0.004l0.221-0.051l0.031-0.127l-0.021-0.138l0.05-0.096l0.412-0.124
			l2.821-0.064l-0.461,0.549l-0.694,0.183l-1.51-0.132l0.443,0.344l0.17,0.095l-0.361,0.198l-0.576,0.178l-0.597,0.069l-0.42-0.14
			l-0.425-0.212l-0.531-0.014l-1.032,0.122l0.239,0.268l0.288,0.049l0.336-0.01l0.387,0.109l0.033,0.207l-0.907,0.234l-2.426,1.425
			l-0.223-0.082l-0.242-0.146l-0.212-0.239l-0.141-0.343l1.315-0.371l0.662-0.336l0.254-0.35l-0.001-0.365l0.137-0.678l0.005-0.313
			l-0.228-0.429l-0.431-0.313l-0.484-0.177l-0.391-0.004l0.191-0.449l0.378-0.118l0.326-0.204l0.071-0.701l0.226,0.111l0.172,0.002
			l0.091-0.127l-0.01-0.293l-0.051-0.129l-0.154-0.178l-0.048-0.121l0.022-0.251l0.155,0.011l0.188,0.105l0.133,0.037l0.187,0.035
			l0.253,0.117l0.205,0.018l0.04-0.282l0.001-0.303l0.112-0.178l0.212-0.065l0.28,0.04l-0.7-0.317l-0.877,0.035l-1.612,0.282
			l0.003,0.144l-0.457,0.779l-0.035,0.479l-0.233,0.162l-0.302-0.075l-0.25-0.24l0.198-0.219l0.173-0.293l0.106-0.349l0.021-0.388
			l-0.444-0.146l-0.05-0.222l0.213-0.248l0.321-0.216l-0.71-0.607l0.335-0.305l0.705-0.094l0.39,0.049l0.411,0.332l0.794-0.019
			l0.776-0.253l0.358-0.367l-0.227-0.042l-0.099-0.077l-0.071-0.119l-0.182-0.185l0.204-0.217l0.237-0.101l0.273,0.012l0.297,0.099
			l0.053-0.423l0.203-0.223l0.113-0.216l-0.226-0.402l1.258,0.291l0.416-0.111l-0.396-0.805l-0.233-0.156l-0.308-0.061h-0.301
			l-0.205,0.029l-1.136,0.625l-0.357,0.109l-0.126,0.078l-0.012,0.096l-0.004,0.396l-0.04,0.153l-0.652,0.715l-0.075,0.111
			l-0.623-0.125l-0.129-1.4l-0.56,0.387l-0.427,0.803l-0.112,0.128l-1.249,0.197l-0.254,0.12l-0.213,0.172l-0.534,0.273
			l-0.186,0.172l-0.335,0.48l-0.005,0.164l0.071,0.407l0.171,0.087l0.866-0.617l0.329,0.084l0.237,0.223l0.073,0.307l-0.146,0.329
			l-0.548,0.306l-0.647,0.201l-0.301,0.342l0.468,0.724l-0.326,0.202l-0.168-0.289l-0.142-0.098l-0.111,0.098l-0.074,0.289h-0.173
			l-0.125-0.589l-0.344-0.54l-0.457-0.396l-0.469-0.153l-0.298,0.136l0.051,0.221l0.069,0.546l-0.047,0.981l-0.258,1.062
			l-0.306,0.58l-0.618,0.92l-0.895,0.916l-1.683,3.096l-0.986,1.035l-0.744,0.531l-0.609,0.221l-0.109,0.754l0.036,0.449
			l-0.02,0.656l0.077,0.793l0.221,0.676l-0.155,0.471l-0.448,0.24l-0.597,0.059l-1.092,0.296l-0.503,0.979l-1.64,2.067l-0.524,1.094
			l-0.864,1.173l-1.273,1.167l-0.146,0.472l-0.039,0.398l-0.346,0.463l-0.689,1.171l-0.112,0.907l-0.003,1.613l-0.135,0.578
			l-2.029,2.889l-0.42,2.604l0.293,0.132l0.583,0.972l0.485,0.227l0.481,0.09l0.383,0.007l0.574,0.425l0.324,0.094l0.223,0.401
			l0.16,0.483l0.379,0.745l0.379,0.358l0.128,0.436l-0.047,0.377l0.026,0.447l0.263,0.312l0.424,0.174l0.479,0.128l0.515,0.209
			l0.378,0.635l0.398,0.395l0.267,0.386l0.213,0.243l1.086,0.707l0.037,0.432l-0.051,0.46l0.047,0.366l0.313,0.208l0.438,0.115
			l0.399,0.151l0.735,0.573l0.466,0.003l0.275-0.324l0.852-0.521l0.467-0.08l0.398-0.271l0.354-0.606l0.5-0.604l0.324-0.945
			l-0.04-0.377l-0.733-0.417l0.227-0.431l0.529-0.566l0.715-0.591l1.135-1.203l0.751-0.398l2.183-0.83l0.281-0.359l0.09-0.46
			l0.178-0.463l-0.088-0.853l0.403-1.712l1.383-1.266l0.588-0.334l0.426-0.387l0.465-0.121l0.538-0.335l0.374-0.339l0.459-0.306
			l0.338-0.325l0.268-0.959l0.246-0.338l0.482,0.147l0.437,0.36l0.304,0.38l0.261,0.164l0.284-0.177l0.267-0.265l0.469-0.196
			l2.024-0.407l0.432-0.037l0.409,0.071l0.354,0.187l0.349,0.13l0.752,0.154l0.473-0.041l0.364,0.037l0.298,0.115l0.151,0.18
			l0.879,0.803l2.448-2.807l0.337-0.586l1.281-3.081l0.025-0.738L171.547,38.369z"/>
		
			<polygon fill-rule="evenodd" clip-rule="evenodd" fill="#878787" stroke="#F9F9F9" stroke-width="0.25" stroke-linecap="round" stroke-linejoin="round" points="
			167.019,44.614 166.868,44.435 166.57,44.319 166.206,44.282 165.733,44.323 164.981,44.169 164.632,44.039 164.279,43.853 
			163.87,43.781 163.438,43.818 161.414,44.226 160.945,44.422 160.678,44.687 160.394,44.863 160.133,44.699 159.83,44.319 
			159.393,43.959 158.911,43.812 158.665,44.149 158.397,45.108 158.059,45.434 157.6,45.739 157.226,46.078 156.688,46.413 
			156.223,46.534 155.797,46.921 155.209,47.255 153.827,48.521 153.423,50.232 153.511,51.085 153.333,51.548 153.244,52.008 
			152.962,52.367 150.78,53.197 150.029,53.596 148.894,54.799 148.179,55.39 147.65,55.956 147.423,56.387 148.157,56.804 
			148.197,57.181 147.873,58.126 147.373,58.729 147.019,59.336 146.621,59.606 146.154,59.687 145.302,60.208 145.027,60.532 
			144.561,60.529 143.826,59.956 143.426,59.805 142.989,59.689 142.675,59.481 142.628,59.115 142.679,58.655 142.642,58.224 
			141.556,57.517 141.343,57.273 141.077,56.888 140.678,56.493 140.3,55.858 139.786,55.649 139.307,55.521 138.883,55.348 
			138.621,55.036 138.594,54.589 138.641,54.212 138.513,53.776 138.134,53.418 137.755,52.673 137.595,52.189 137.373,51.788 
			137.048,51.694 136.474,51.27 136.091,51.263 135.61,51.173 135.125,50.946 134.542,49.975 134.249,49.843 133.853,49.771 
			133.666,49.688 133.376,49.642 133.083,49.634 132.828,49.701 132.663,49.853 132.636,50.162 132.633,50.593 132.253,52.297 
			132.022,52.944 131.092,54.188 130.68,54.542 130.294,54.799 129.593,54.961 129.558,55.544 129.507,55.839 129.421,56.182 
			129.195,56.776 129.173,57.112 129.089,57.461 128.834,57.772 128.237,58.015 127.786,58.109 127.105,58.404 126.012,59.411 
			124.672,60.483 124.363,60.849 124.194,61.298 124.02,61.583 123.568,62.058 123.382,62.489 123.177,62.81 122.191,63.605 
			121.743,64.813 121.12,65.376 120.521,65.683 120.095,65.828 119.376,65.876 119.016,65.976 118.374,66.435 117.946,66.835 
			117.503,67.6 117.032,68.234 116.976,68.583 116.991,69.141 115.605,69.962 114.371,70.325 114.263,70.46 114.218,70.78 
			114.172,71.562 114.023,72.384 114.003,72.785 113.928,73.131 113.718,73.42 113.378,73.625 112.124,73.589 111.243,73.775 
			110.213,73.845 109.336,74.096 109.161,74.12 109.013,74.105 108.822,74 108.567,73.944 108.253,73.956 107.387,74.274 
			106.935,74.627 106.587,74.834 106.149,74.917 105.345,74.979 104.395,75.345 103.885,75.716 102.993,76.636 102.769,77.194 
			102.682,77.646 102.642,77.992 102.406,78.309 101.988,78.569 100.129,79.116 99.579,79.073 98.72,79.61 97.61,81.982 
			96.79,82.545 94.507,83.671 90.727,86.727 88.765,89.108 88.109,89.102 87.665,88.966 86.837,89.079 85.73,89.5 82.715,91.188 
			80.371,91.969 79.68,92.376 78.037,93.898 77.514,94.57 77.265,95.22 77.056,95.977 76.577,96.792 76.044,97.469 75.74,98.282 
			75.271,98.813 74.807,99.882 71.488,102.675 70.821,103.544 70.101,104.287 69.049,105.661 69.564,107.319 69.418,108.063 
			68.979,108.983 68.708,109.791 68.292,110.381 67.86,111.208 67.663,111.798 67.296,112.493 67.358,113.152 68.424,118.594 
			68.64,119.323 68.865,119.781 69.69,120.062 70.498,120.608 71.034,121.388 71.817,123.382 72.407,123.952 73.024,124.236 
			73.694,124.139 74.525,124.942 76.163,126.231 77.937,126.022 78.796,126.354 79.705,127.179 80.497,128.248 81.7,130.423 
			82.905,132.216 83.843,133.25 84.489,133.828 85.327,134.184 87.094,134.302 89.181,133.887 90.126,133.931 90.638,134.209 
			91.069,134.8 91.11,135.461 91.418,136.297 91.812,139.575 92.513,140.352 93.088,140.768 95.254,139.57 98.498,134 
			99.297,133.615 100.221,133.39 101.184,133.37 102.943,133.007 104.189,133.164 104.193,133.162 110.804,134.554 111.607,134.521 
			112.042,134.208 112.184,133.598 112.052,131.815 111.888,130.832 111.507,130.102 110.781,129.996 110.951,129.629 
			111.254,129.467 111.503,129.24 111.522,128.675 111.389,128.157 110.833,126.708 110.404,124.445 110.081,123.411 
			109.423,122.813 110.067,122.438 110.26,122.384 110.517,122.259 110.545,121.968 110.492,121.628 110.492,121.356 
			111.066,120.608 111.312,120.164 111.339,119.604 111.018,117.888 111.049,117.544 111.98,115.382 112.01,115.089 
			111.795,114.847 111.255,114.573 110.585,114.386 108.501,114.349 109.095,114.017 111.167,114.143 111.583,114.255 
			112.016,114.46 112.416,114.558 112.729,114.349 113.253,114.514 113.797,114.206 115.04,112.785 115.302,112.574 
			115.901,112.365 115.66,112.1 114.947,111.702 114.43,111.275 113.879,110.665 113.412,109.982 113.157,109.329 112.835,108.735 
			112.257,108.272 111.615,107.85 111.104,107.385 111.075,107.052 111.649,107.165 112.414,107.513 113.26,108.099 
			113.946,108.319 114.26,108.509 114.831,109.023 115.393,109.638 116.106,110.681 116.481,111.33 116.974,111.293 
			117.228,111.197 117.805,110.772 118.467,110.59 118.704,110.367 118.917,110.092 119.172,109.843 119.528,109.711 
			120.412,109.533 122.038,108.406 122.162,107.939 121.311,104.89 121.613,105.226 121.734,105.565 121.791,105.931 
			121.916,106.342 122.542,107.319 122.668,107.683 123.105,108.259 123.829,108.15 128.037,105.095 130.415,104.027 
			130.854,103.631 130.94,102.952 129.863,102.124 128.891,101 128.052,99.779 127.497,99.185 126.907,98.932 126.25,98.838 
			124.758,98.262 123.225,97.184 122.552,96.516 128.799,99.081 130.379,100.278 132.378,102.431 132.775,102.687 133.079,102.739 
			135.084,102.449 135.329,102.329 135.563,101.97 135.603,101.82 135.523,101.645 135.378,101.202 135.255,100.468 135.198,99.584 
			135.298,98.838 135.656,98.522 136.33,98.391 136.928,98.149 137.545,98.054 138.262,98.34 138.5,98.549 138.878,98.968 
			139.079,99.137 139.535,99.292 140.302,99.189 140.62,99.252 141.376,99.65 141.604,99.877 141.258,99.975 140.885,100.019 
			137.362,101.15 136.714,101.246 136.434,101.378 136.228,101.599 136.188,101.919 136.421,102.034 137.398,101.893 
			139.451,101.202 140.864,101.076 141.495,100.755 143.469,100.498 144.094,100.208 144.524,100.181 144.146,100.741 
			144.244,101.143 145.363,102.022 145.997,102.635 146.333,102.838 146.87,102.684 147.545,103.283 147.915,103.457 
			149.533,103.457 150.133,103.56 150.203,103.493 149.227,102.411 148.822,101.604 148.703,100.784 148.912,99.975 148.548,99.712 
			148.416,99.365 148.525,99.063 148.886,98.932 149.236,99.081 149.32,99.445 149.349,99.886 149.553,100.28 149.906,100.667 
			149.981,100.897 149.955,101.15 150.037,101.615 150.206,102.01 150.642,102.684 150.817,103.063 150.986,102.862 
			151.187,102.762 151.415,102.812 151.661,103.063 151.638,102.862 151.68,102.228 152.147,102.321 152.63,101.615 
			153.008,102.022 153.188,101.276 153.238,100.433 153.156,99.562 152.918,98.746 152.826,98.599 152.567,98.291 152.472,98.113 
			152.479,97.969 152.532,97.759 152.559,97.513 152.494,97.277 152.147,96.919 151.757,96.675 151.416,96.37 151.219,95.843 
			150.948,95.998 150.369,96.681 150.197,96.271 149.87,96.017 149.477,95.879 149.101,95.843 148.804,95.982 148.651,96.3 
			148.536,96.655 148.362,96.887 148.037,96.971 147.915,96.789 147.843,95.958 147.708,95.452 147.519,95.199 146.798,94.837 
			146.713,95.594 146.732,96.363 146.642,96.466 146.369,96.225 146.06,95.798 145.872,95.343 145.462,95.28 144.575,95.271 
			143.689,95.478 143.28,96.066 142.705,95.915 142,95.812 141.667,95.58 142.235,95.045 142.934,94.826 144.552,94.73 
			145.206,94.45 143.625,94.079 143.204,93.836 142.924,93.415 143.01,93.222 143.311,93.27 143.687,93.61 143.649,93.136 
			142.622,91.361 141.837,89.49 141.487,88.882 140.48,89.652 139.407,90.181 136.897,90.747 133.357,89.951 136.627,90.018 
			138.266,89.775 139.682,89.293 139.936,89.107 140.555,88.479 140.91,88.425 141.751,88.438 141.885,88.254 141.648,86.662 
			141.612,85.907 141.664,85.185 138.733,85.389 135.158,84.48 140.3,84.79 140.749,84.731 141.109,84.571 141.256,84.369 
			141.338,84.124 141.782,83.313 142.126,82.067 142.38,81.479 144.068,80.245 144.61,79.493 145.376,79.153 148.602,78.418 
			149.657,77.586 149.835,77.381 149.896,77.119 149.925,76.783 150.016,76.486 150.962,76.011 151.651,75.916 151.911,75.831 
			152.89,75.23 153.085,75.025 153.142,74.814 153.13,74.396 153.268,74.243 153.469,74.141 153.661,73.879 153.773,73.514 
			153.76,73.34 153.701,73.176 153.649,72.837 153.433,72.255 153.43,71.949 154.145,71.592 154.528,71.054 154.793,70.415 
			154.887,69.368 156.183,65.645 156.037,65.574 155.923,65.507 155.796,65.451 155.62,65.438 155.582,65.216 156.593,64.704 
			156.997,63.6 157.16,62.282 157.459,61.132 158.524,59.696 158.801,59.47 159.045,59.376 159.506,58.951 159.815,58.854 
			160.207,58.913 160.516,59.08 161.132,59.696 161.286,59.495 161.414,59.265 161.194,58.982 160.689,58.513 160.543,58.237 
			160.503,57.747 160.649,57.499 160.885,57.333 161.127,57.099 161.2,56.927 161.36,56.392 161.717,56.409 161.883,56.382 
			162.011,56.277 162.594,55.139 163.053,54.683 164.067,54.029 164.484,53.601 164.833,52.81 165.215,52.237 165.24,52.097 
			164.153,51.142 163.657,50.804 163.276,50.344 163.013,49.47 163.042,49.177 163.231,49.229 163.45,49.501 163.592,49.863 
			163.726,50.382 163.919,50.665 164.211,50.849 165.38,51.28 165.653,51.13 165.619,50.591 165.453,49.675 165.492,49.062 
			165.721,48.371 166.266,47.286 167.898,45.417 		"/>
	</g>
</g>
<g id="North_Island">
</g>
</svg>
